<?xml version="1.0" standalone="no"?>
<!DOCTYPE svg PUBLIC "-//W3C//DTD SVG 1.1//EN" "http://www.w3.org/Graphics/SVG/1.1/DTD/svg11.dtd" >
<!--
2013-9-30: Created.
-->
<svg>
<metadata>
Created by iconfont
</metadata>
<defs>

<font id="iconfont" horiz-adv-x="1024" >
  <font-face
    font-family="iconfont"
    font-weight="500"
    font-stretch="normal"
    units-per-em="1024"
    ascent="896"
    descent="-128"
  />
    <missing-glyph />
    
    <glyph glyph-name="cost" unicode="&#58944;" d="M749.548 168.381l0.028 0.166 0.245 0.423 0.103-0.315zM724.868 180.809l0.025 0.148 0.219 0.379 0.092-0.282zM835.702 681.692c-8.808 8.808-23.086 8.808-31.894 0l-291.808-291.809-291.809 291.809c-8.808 8.808-23.087 8.807-31.894 0-8.807-8.807-8.807-23.086 0-31.893l290.178-290.178-239.608-0c-12.456 0-22.552-10.097-22.552-22.552 0-12.456 10.096-22.552 22.552-22.552h250.581v-155.674h-250.581c-12.456 0-22.552-10.097-22.552-22.552 0-12.456 10.096-22.552 22.552-22.552h250.581v-203.486c0-12.456 10.097-22.552 22.552-22.552 12.456 0 22.552 10.097 22.552 22.552v203.485h250.581c12.455 0 22.552 10.097 22.552 22.552s-10.098 22.552-22.552 22.552h-250.58v155.675h250.581c12.455 0 22.552 10.097 22.552 22.552s-10.098 22.552-22.552 22.552l-239.608-0 290.178 290.178c8.808 8.808 8.808 23.087 0 31.893z"  horiz-adv-x="1024" />

    
    <glyph glyph-name="tingchechang1" unicode="&#59105;" d="M543.381731 603.670072 386.474099 603.670072l0-439.33912 62.762439 0L449.236538 289.85583l94.14417 0c86.656639 0 156.906609 70.249971 156.906609 156.906609S630.03837 603.670072 543.381731 603.670072zM543.381731 352.618269l-94.14417 0 0 188.288341 94.14417 0c51.993165 0 94.14417-42.151006 94.14417-94.14417C637.525901 394.770298 595.373873 352.618269 543.381731 352.618269zM512 854.720851c-259.969916 0-470.720851-210.744795-470.720851-470.720851 0-259.969916 210.750935-470.720851 470.720851-470.720851s470.720851 210.750935 470.720851 470.720851C982.720851 643.976056 771.969916 854.720851 512 854.720851zM512-23.958412c-225.312582 0-407.958412 182.64583-407.958412 407.958412 0 225.305419 182.64583 407.958412 407.958412 407.958412 225.305419 0 407.958412-182.65197 407.958412-407.958412C919.958412 158.687418 737.305419-23.958412 512-23.958412z"  horiz-adv-x="1024" />

    
    <glyph glyph-name="renyuan" unicode="&#59058;" d="M926.7-31.4c-1.3 0-1.3 1.3-1.3 2.6 0 0 0 0 0 1.3l-1.3 7.8c-16.8 146-112.4 270-246.8 326.8 78.8 53 126.6 142.1 126.6 239C804 705 673.5 835.5 514.6 835.5c-80.1 0-148.6-28.4-205.4-85.3-55.5-55.6-84-124-84-204.1 0-96.9 49.1-186 126.6-239-133.1-55.5-226.1-178.3-246.7-321.7-1.3-2.6-1.3-5.2-1.3-7.8l0-6.5 0-2.6 0-1.3c0-20.7 16.8-41.3 41.3-41.3 22 0 41.3 19.4 41.3 41.3l0 1.3C208.4 125 335 249 496.5 258c11.6-1.3 24.6-1.3 36.2 0 80.1-3.9 149.9-33.6 208-89.1 58.1-54.3 93-121.4 102-200.2l1.3 0 0-1.3c0-20.7 16.8-41.3 41.3-41.3 22 0 41.3 19.4 41.3 41.3l-1.3 1.3L926.7-31.3zM514.6 339.4c-112.4 0-206.7 94.3-206.7 206.7 0 58.1 20.7 105.9 60.7 146 40 40 89.1 60.7 146 60.7 56.8 0 105.9-20.7 146-60.7 40-40 60.7-87.9 60.7-146C721.3 432.4 628.3 339.4 514.6 339.4z"  horiz-adv-x="1024" />

    
    <glyph glyph-name="xiaoxixinfengnews2" unicode="&#59432;" d="M896.64 686.08C877.44 696.96 855.68 704 832 704L256 704C232.32 704 210.56 696.96 191.36 686.08L544 333.44 896.64 686.08zM942.08 640.64 568.32 266.88C561.92 260.48 552.96 257.28 544 257.92 535.04 257.28 526.08 260.48 519.68 266.88L145.92 640.64C135.04 621.44 128 599.68 128 576l0-448c0-70.4 57.6-128 128-128l576 0c70.4 0 128 57.6 128 128L960 576C960 599.68 952.96 621.44 942.08 640.64z"  horiz-adv-x="1024" />

    
    <glyph glyph-name="mdingdanguanli" unicode="&#59068;" d="M782.019 701.44h-116.419c-11.305 0-20.48-9.175-20.48-20.48s9.175-20.48 20.48-20.48h116.419c20.388 0 26.941-6.625 26.941-27.259v-557.373c0-21.064-9.359-50.248-26.941-50.248h-509.317c-19.937 0-47.421 29.123-47.421 50.248v557.373c0 18.596 28.303 27.259 47.421 27.259h116.419c11.305 0 20.48 9.175 20.48 20.48s-9.175 20.48-20.48 20.48h-116.419c-42.844 0-88.381-23.91-88.381-68.219v-557.373c0-43.469 46.254-91.208 88.381-91.208h509.317c44.104 0 67.901 46.991 67.901 91.208v557.373c0 43.356-24.75 68.219-67.901 68.219zM450.56 701.44h51.2v-40.96h-30.72c-11.305 0-20.48-9.175-20.48-20.48s9.175-20.48 20.48-20.48h102.4c11.305 0 20.48 9.175 20.48 20.48s-9.175 20.48-20.48 20.48h-30.72v40.96h51.2c11.305 0 20.48 9.175 20.48 20.48s-9.175 20.48-20.48 20.48h-143.36c-11.305 0-20.48-9.175-20.48-20.48s9.175-20.48 20.48-20.48zM727.040 527.36h-399.36c-11.305 0-20.48-9.175-20.48-20.48s9.175-20.48 20.48-20.48h399.36c11.305 0 20.48 9.175 20.48 20.48s-9.175 20.48-20.48 20.48zM727.040 384h-399.36c-11.305 0-20.48-9.175-20.48-20.48s9.175-20.48 20.48-20.48h399.36c11.305 0 20.48 9.175 20.48 20.48s-9.175 20.48-20.48 20.48zM727.040 250.88h-399.36c-11.305 0-20.48-9.175-20.48-20.48s9.175-20.48 20.48-20.48h399.36c11.305 0 20.48 9.175 20.48 20.48s-9.175 20.48-20.48 20.48z"  horiz-adv-x="1024" />

    
    <glyph glyph-name="dingwei3" unicode="&#59213;" d="M87.45984 307.08736 827.262976 709.4272 491.702272-62.961664 416.700416 257.488896Z"  horiz-adv-x="1024" />

    
    <glyph glyph-name="cheliang" unicode="&#59101;" d="M774.514879 670.379403c0 0-23.722284 47.730071-71.594595 47.730071L321.080739 718.109474c-47.730071 0-70.300113-47.730071-70.300113-47.730071L130.160455 384 130.160455 193.080739l763.67909 0L893.839545 384 774.514879 670.379403zM292.542776 650.243807c0 0 10.755971 20.135596 28.537963 20.135596l381.839545 0c19.273972 0 28.638247-18.281365 28.638247-18.281365l90.687442-220.367967L201.75505 431.730071 292.542776 650.243807zM249.485121 240.809787c-39.540552 0-71.594595 32.054043-71.594595 71.594595 0 39.540552 32.054043 71.594595 71.594595 71.594595s71.594595-32.054043 71.594595-71.594595C321.080739 272.864854 289.025673 240.809787 249.485121 240.809787zM774.514879 240.809787c-39.540552 0-71.594595 32.054043-71.594595 71.594595 0 39.540552 32.054043 71.594595 71.594595 71.594595 39.540552 0 71.594595-32.054043 71.594595-71.594595C846.109474 272.864854 814.05543 240.809787 774.514879 240.809787zM130.160455 145.350668c0-52.720735 42.738383-95.460142 95.460142-95.460142s95.460142 42.738383 95.460142 95.460142l381.839545 0c0-52.720735 42.738383-95.460142 95.460142-95.460142 52.720735 0 95.460142 42.738383 95.460142 95.460142l0 23.864524L130.160455 169.215192 130.160455 145.350668z"  horiz-adv-x="1024" />

    
    <glyph glyph-name="jihuayichuli" unicode="&#58885;" d="M757.826 335.742c-109.324 0-197.953-88.629-197.953-197.953 0-109.329 88.624-197.968 197.953-197.968 109.334 0 197.953 88.629 197.953 197.968 0 109.324-88.624 197.953-197.953 197.953z m126.796-155.351L740.476 50.773a14.162 14.162 0 0 0-9.451-3.615 14.11 14.11 0 0 0-10.003 4.148L628.423 143.9c-5.525 5.511-5.525 14.473 0 19.982 5.525 5.525 14.481 5.525 19.997 0l83.118-83.104 134.168 120.646c5.797 5.234 14.758 4.754 19.953-1.057 5.244-5.81 4.77-14.742-1.037-19.976zM266.011 669.1c23.249 0 42.092 18.218 42.092 40.682v81.369c0 22.479-18.843 40.692-42.092 40.692s-42.083-18.213-42.083-40.692v-81.369c0-22.469 18.834-40.682 42.083-40.682zM686.892 669.1c23.249 0 42.088 18.218 42.088 40.682v81.369c0 22.479-18.854 40.692-42.088 40.692-23.244 0-42.083-18.213-42.083-40.692v-81.369c-0.014-22.469 18.838-40.682 42.083-40.682zM476.444 669.1c23.249 0 42.083 18.218 42.083 40.682v81.369c0 22.479-18.838 40.692-42.083 40.692-23.234 0-42.078-18.213-42.078-40.692v-81.369c-0.005-22.469 18.843-40.682 42.078-40.682zM530.57 99.521H216.92c-19.377 0-35.075 15.194-35.075 33.907 0 18.717 15.698 33.892 35.075 33.892h312.89c4.677 34.682 17.05 66.912 35.337 94.939H223.928c-23.249 0-42.087 18.214-42.087 40.678 0 22.478 18.838 40.687 42.087 40.687h433.1c30.679 15.054 65.157 23.545 101.643 23.545 45.906 0 88.648-13.454 124.61-36.548V709.782c0 22.469-18.834 40.692-42.083 40.692h-70.14v-40.692c0-44.942-37.688-81.374-84.176-81.374s-84.175 36.427-84.175 81.374v40.692h-42.083v-40.692c0-44.942-37.682-81.374-84.17-81.374-46.483 0-84.175 36.427-84.175 81.374v40.692h-42.087v-40.692c0-44.942-37.682-81.374-84.17-81.374-46.484 0-84.17 36.427-84.17 81.374v40.692h-70.154c-23.249 0-42.083-18.218-42.083-40.692v-705.196c0-22.454 18.834-40.673 42.083-40.673h493.056c-38.688 34.595-65.644 82.033-74.184 135.608zM223.928 519.932H728.98c23.244 0 42.078-18.223 42.078-40.692 0-22.459-18.834-40.672-42.078-40.672H223.928c-23.249 0-42.087 18.213-42.087 40.672-0.001 22.468 18.838 40.692 42.087 40.692z"  horiz-adv-x="1024" />

    
    <glyph glyph-name="arrow-right" unicode="&#58884;" d="M148.409 196.613c0 0 317.444 413.412 317.444 413.412 22.060 28.734 69.89 28.734 91.951 0 0 0 317.444-413.412 317.444-413.412 20.453-26.633-5.128-59.941-46.038-59.942 0 0-634.826 0-634.826 0-40.847 0-66.43 33.308-45.976 59.941 0 0 0 0 0 0z"  horiz-adv-x="1024" />

    
    <glyph glyph-name="shuju" unicode="&#59027;" d="M51.200512 76.8h204.8V435.2H51.200512v-358.4zM0.000512 435.3024C0.000512 463.5136 23.091712 486.4 50.688512 486.4h205.824c27.9552 0 50.688-22.8352 50.688-51.0976v-358.6048c0-28.2112-23.0912-51.0976-50.688-51.0976H50.688512a50.8928 50.8928 0 0 0-50.688 51.0976V435.3024zM409.600512 844.8a51.2 51.2 0 0 0 50.688 51.2h205.824A51.2 51.2 0 0 0 716.800512 844.8v-768a51.2 51.2 0 0 0-50.688-51.2H460.288512A51.2 51.2 0 0 0 409.600512 76.8V844.8z m51.2-768h205.312C665.600512 76.8 665.600512 844.8 665.600512 844.8H460.288512C460.800512 844.8 460.800512 76.8 460.800512 76.8z m358.4 461.0048c0 28.16 23.0912 50.9952 50.688 50.9952h205.824c27.9552 0 50.688-22.784 50.688-50.9952v-461.2096c0-28.16-23.0912-50.9952-50.688-50.9952h-205.824a50.8416 50.8416 0 0 0-50.688 50.9952V537.8048zM870.400512 76.8h204.9536C1075.200512 76.8 1075.200512 537.6 1075.200512 537.6h-204.9536C870.400512 537.6 870.400512 76.8 870.400512 76.8zM0.000512-102.4c0 14.1312 11.1616 25.6 25.6 25.6h1075.2c14.1312 0 25.6-11.8784 25.6-25.6 0-14.1312-11.1616-25.6-25.6-25.6H25.600512a25.9072 25.9072 0 0 0-25.6 25.6z"  horiz-adv-x="1126" />

    
    <glyph glyph-name="tuichu" unicode="&#58984;" d="M909.529 551.948c-21.731 51.38-52.836 97.518-92.45 137.131-11.715 11.716-30.711 11.716-42.426 0-11.716-11.716-11.716-30.711 0-42.427C844.81 576.496 883.447 483.217 883.447 384c0-99.217-38.638-192.495-108.794-262.652-70.157-70.157-163.436-108.795-262.652-108.795-99.219 0-192.497 38.638-262.653 108.795C179.19 191.505 140.553 284.783 140.553 384c0 99.217 38.638 192.496 108.795 262.653 11.716 11.716 11.716 30.711 0 42.427s-30.711 11.716-42.427 0c-39.613-39.614-70.719-85.751-92.45-137.131C91.965 498.738 80.553 442.232 80.553 384c0-58.231 11.412-114.737 33.918-167.947 21.731-51.38 52.837-97.518 92.45-137.131 39.613-39.614 85.751-70.72 137.131-92.451 53.211-22.507 109.717-33.918 167.949-33.918 58.231 0 114.737 11.411 167.947 33.918 51.38 21.731 97.518 52.837 137.131 92.451 39.614 39.613 70.719 85.751 92.45 137.131 22.507 53.21 33.918 109.716 33.918 167.947 0 58.232-11.411 114.738-33.918 167.948zM512.001 354c16.568 0 30 13.432 30 30V785.447c0 16.568-13.432 30-30 30s-30-13.432-30-30V384c0-16.568 13.432-30 30-30z"  horiz-adv-x="1024" />

    
    <glyph glyph-name="saoma" unicode="&#59067;" d="M744.96 852.992c29.696 0 53.76-24.064 53.76-53.76v-830.464c0-29.696-24.064-53.76-53.76-53.76H227.328c-29.696 0-53.76 24.064-53.76 53.76V799.232c0 29.696 24.064 53.76 53.76 53.76h517.632m0 43.008H227.328C174.08 896 130.56 852.48 130.56 799.232v-830.464c0-53.248 43.52-96.768 96.768-96.768h517.632c53.248 0 96.768 43.52 96.768 96.768V799.232c0 53.248-43.52 96.768-96.768 96.768zM759.808 648.192H212.48V799.232c0 8.192 6.656 14.848 14.848 14.848h517.632c8.192 0 14.336-6.656 14.336-14.336v-151.552zM212.48 111.616h547.328V-30.72c0-8.192-6.656-15.36-15.36-15.36H221.184c-4.608 0-8.704 4.096-8.704 8.704v148.992zM538.624 715.776H432.128c-6.656 0-11.776 5.12-11.776 11.776 0 6.656 5.12 11.776 11.776 11.776h107.008c6.656 0 11.776-5.12 11.776-11.776-0.512-6.656-5.632-11.776-12.288-11.776zM628.736 448V526.336c0 10.752 8.704 19.456 19.456 19.456 10.752 0 19.456-8.704 19.456-19.456v-78.336c0-10.752-8.704-19.456-19.456-19.456-10.752 0-19.456 8.704-19.456 19.456zM570.368 545.792h78.336c10.752 0 19.456-8.704 19.456-19.456 0-10.752-8.704-19.456-19.456-19.456h-78.336c-10.752 0-19.456 8.704-19.456 19.456-0.512 10.752 8.704 19.456 19.456 19.456zM314.368 448V526.336c0 10.752 8.704 19.456 19.456 19.456 10.752 0 19.456-8.704 19.456-19.456v-78.336c0-10.752-8.704-19.456-19.456-19.456-10.752 0-19.456 8.704-19.456 19.456zM333.824 545.792h78.336c10.752 0 19.456-8.704 19.456-19.456 0-10.752-8.704-19.456-19.456-19.456H333.824c-10.752 0-19.456 8.704-19.456 19.456 0 10.752 8.704 19.456 19.456 19.456zM412.16 222.72H333.824c-10.752 0-19.456 8.704-19.456 19.456 0 10.752 8.704 19.456 19.456 19.456h78.336c10.752 0 19.456-8.704 19.456-19.456 0-10.752-8.704-19.456-19.456-19.456zM314.368 242.176v78.336c0 10.752 8.704 19.456 19.456 19.456 10.752 0 19.456-8.704 19.456-19.456v-78.336c0-10.752-8.704-19.456-19.456-19.456-10.752 0-19.456 8.704-19.456 19.456zM570.368 261.632h78.336c10.752 0 19.456-8.704 19.456-19.456 0-10.752-8.704-19.456-19.456-19.456h-78.336c-10.752 0-19.456 8.704-19.456 19.456-0.512 10.752 8.704 19.456 19.456 19.456zM667.648 320.512v-78.336c0-10.752-8.704-19.456-19.456-19.456-10.752 0-19.456 8.704-19.456 19.456v78.336c0 10.752 8.704 19.456 19.456 19.456 10.752 0 19.456-8.704 19.456-19.456zM486.4 24.064m-31.232 0a31.232 31.232 0 1 1 62.464 0 31.232 31.232 0 1 1-62.464 0Z"  horiz-adv-x="1024" />

    
    <glyph glyph-name="fenxi" unicode="&#59069;" d="M222.295209 297.282994a127.99936 127.99936 0 1 1-50.751746-33.727832l119.615402-175.615122a127.99936 127.99936 0 1 1 162.559187 19.519903l177.599112 532.861335a129.91935 129.91935 0 0 1 42.559787 4.15998l132.991335-232.766837a127.99936 127.99936 0 1 1 55.551723 31.807841l-132.991335 232.766837a127.99936 127.99936 0 1 1-158.847206-15.743922l-177.599112-532.861335a129.91935 129.91935 0 0 1-55.231724-8.319959l-115.455423 177.919111z"  horiz-adv-x="1024" />

    
    <glyph glyph-name="quxiao" unicode="&#58909;" d="M511.162 831.532c-247.244 0-447.696-200.43-447.696-447.697 0-247.242 200.452-447.696 447.696-447.696 247.246 0 447.697 200.454 447.697 447.696 0 247.268-200.451 447.697-447.697 447.697z m222.677-676.27c-13.966-13.966-36.607-13.966-50.573 0L511.483 324.818 340.038 153.375c-14.18-14.18-37.15-14.18-51.331 0-14.179 14.178-14.179 37.175 0 51.33l171.11 171.11-171.55 169.328c-13.965 13.966-13.965 36.608 0 50.598 13.967 13.967 36.607 13.967 50.574 0l171.563-169.34 171.883 171.881c14.155 14.18 37.15 14.18 51.328 0 14.179-14.18 14.179-37.15 0-51.33L562.068 375.403l171.77-169.545c13.97-13.966 13.97-36.632 0.001-50.598z"  horiz-adv-x="1024" />

    
    <glyph glyph-name="jiaoche" unicode="&#58913;" d="M934.93248 483.29216h-132.50048L643.84 655.05792c-0.2816 0.29696-0.55808 0.5888-0.84992 0.8704-20.992 20.16768-39.90016 32.6656-69.28896 32.6656H356.46976c-48.80896 0-84.3008-22.272-115.072-72.21248l-0.3584-0.60928-75.43296-132.48h-11.93984C68.93568 483.29216 0 414.35648 0 329.6256v-119.67488a20.39296 20.39296 0 0 1 20.39808-20.38784h79.29856c10.30656-62.32064 64.77824-110.16192 129.78688-110.16192 65.02912 0 119.51616 47.872 129.79712 110.16192h309.5296c10.31168-62.32064 64.77824-110.16192 129.792-110.16192 65.02912 0 119.52128 47.872 129.80224 110.16192h75.20256a20.39296 20.39296 0 0 1 20.39808 20.38784v184.2688c-0.00512 49.11616-39.96672 89.07264-89.07264 89.07264z m-410.69056 0H361.05216v164.5056h212.64896c14.52032 0 23.68-4.69504 40.59136-20.86912l132.608-143.63648h-181.86752M276.31104 595.2768c14.03904 22.71744 27.77088 37.0944 43.94496 44.9536v-156.93824H212.55168l63.75936 111.98464z m43.93984-384.37888l-0.02048-0.75776c-0.44544-49.59232-41.15968-89.93792-90.74688-89.93792s-90.30144 40.35072-90.752 89.92768c0 0.32256-0.01024 0.63488-0.02048 1.024 0.1024 49.9712 40.7808 90.59328 90.77248 90.59328s90.67008-40.63232 90.77248-90.59328l-0.00512-0.256z m569.1136 0l-0.02048-0.75776c-0.44544-49.59232-41.15456-89.93792-90.74688-89.93792-49.59744 0-90.30656 40.35072-90.75712 89.92768 0 0.32256-0.01024 0.63488-0.0256 1.024 0.1024 49.9712 40.78592 90.59328 90.77248 90.59328 49.99168 0 90.67008-40.63232 90.77248-90.59328a1.41824 1.41824 0 0 0 0.00512-0.256z m93.83424 94.92992h-14.27456a20.39808 20.39808 0 0 1 0-40.79616h14.27456v-34.67264h-54.46144c-9.39008 63.40096-64.1792 112.19456-130.14016 112.19456-65.97632 0-120.75008-48.7936-130.1504-112.19456H359.6288c-9.3952 63.40096-64.1792 112.19456-130.14528 112.19456-65.9712 0-120.75008-48.7936-130.14528-112.19456H40.79616v34.67264h18.3552a20.39296 20.39296 0 1 1 0 40.79616H40.79616v23.78752c0 62.23872 50.63168 112.8704 112.8704 112.8704h781.2608c24.06912 0 44.07808-17.72032 47.68256-40.79616h-66.72896a20.39296 20.39296 0 0 1 0-40.79104h67.30752v-55.07072h0.01024z"  horiz-adv-x="1024" />

    
    <glyph glyph-name="guanliyuan" unicode="&#58906;" d="M315.392 388.096c-81.92 40.96-137.216 122.88-137.216 221.184 0 135.168 110.592 245.76 245.76 245.76s245.76-110.592 245.76-245.76c0-133.12-104.448-241.664-237.568-245.76H430.08c-202.752 0-368.64-165.888-368.64-368.64 0-12.288-8.192-20.48-20.48-20.48s-20.48 8.192-20.48 20.48c0 186.368 124.928 344.064 294.912 393.216zM423.936 404.48c112.64 0 204.8 92.16 204.8 204.8s-92.16 204.8-204.8 204.8-204.8-92.16-204.8-204.8 92.16-204.8 204.8-204.8z m561.152-135.168l4.096-10.24-49.152-59.392c-8.192-10.24-8.192-26.624 0-36.864l49.152-57.344-4.096-10.24c-10.24-28.672-24.576-57.344-45.056-79.872l-8.192-8.192-75.776 12.288c-12.288 2.048-26.624-6.144-30.72-18.432l-26.624-73.728-10.24-2.048c-38.912-8.192-77.824-8.192-116.736 0l-12.288 2.048-24.576 71.68c-4.096 12.288-18.432 20.48-30.72 18.432l-77.824-12.288-8.192 8.192c-10.24 10.24-18.432 22.528-24.576 34.816-8.192 14.336-16.384 30.72-20.48 47.104l-4.096 10.24 51.2 57.344c8.192 10.24 8.192 26.624 0 34.816L471.04 257.024l4.096 10.24c10.24 30.72 26.624 57.344 47.104 81.92l8.192 8.192 73.728-12.288c12.288-2.048 26.624 6.144 32.768 18.432l26.624 71.68 10.24 2.048c36.864 8.192 75.776 8.192 114.688 0l12.288-2.048 24.576-69.632c4.096-12.288 18.432-22.528 32.768-20.48l75.776 10.24 8.192-8.192c10.24-12.288 18.432-22.528 24.576-36.864 6.144-10.24 12.288-26.624 18.432-40.96z m-57.344 24.576c-4.096 8.192-8.192 14.336-14.336 22.528l-53.248-6.144c-32.768-4.096-65.536 16.384-75.776 47.104L768 404.48c-24.576 4.096-49.152 4.096-73.728 0l-18.432-49.152c-10.24-30.72-45.056-51.2-77.824-45.056l-51.2 8.192c-12.288-14.336-20.48-32.768-28.672-49.152l34.816-40.96c20.48-24.576 20.48-63.488 0-88.064l-34.816-40.96c4.096-10.24 8.192-18.432 14.336-28.672 4.096-8.192 8.192-14.336 14.336-20.48l55.296 8.192c32.768 4.096 65.536-16.384 75.776-47.104l16.384-49.152c24.576-4.096 51.2-4.096 75.776 0l18.432 51.2c10.24 30.72 45.056 51.2 75.776 45.056l51.2-8.192c10.24 14.336 20.48 30.72 26.624 49.152l-32.768 38.912c-20.48 24.576-22.528 63.488-2.048 88.064l34.816 40.96c-4.096 8.192-8.192 16.384-14.336 26.624z m-196.608-204.8c-51.2 0-92.16 40.96-92.16 92.16s40.96 92.16 92.16 92.16 92.16-40.96 92.16-92.16-43.008-92.16-92.16-92.16z m0 40.96c28.672 0 51.2 22.528 51.2 51.2s-22.528 51.2-51.2 51.2-51.2-22.528-51.2-51.2 22.528-51.2 51.2-51.2z"  horiz-adv-x="1024" />

    
    <glyph glyph-name="dingdan" unicode="&#58999;" d="M317.0304 793.6h-151.893333c-24.917333 0-42.257067-15.5648-42.257067-30.72V-25.6c0-15.1552 17.3056-30.72 42.257067-30.72h683.485866c24.917333 0 42.257067 15.5648 42.257067 30.72V762.88c0 15.1552-17.3056 30.72-42.257067 30.72h-161.041066V865.28h161.041066c62.941867 0 113.937067-45.841067 113.937067-102.4V-25.6c0-56.558933-50.9952-102.4-113.937067-102.4H165.137067C102.1952-128 51.2-82.158933 51.2-25.6V762.88c0 56.558933 50.9952 102.4 113.937067 102.4h151.893333V793.6z m77.2096 102.4h215.04a56.32 56.32 0 1 0 0-112.64h-215.04a56.32 56.32 0 1 0 0 112.64z m-133.12-317.44h481.28a35.84 35.84 0 1 0 0-71.68H261.12a35.84 35.84 0 1 0 0 71.68z m0-174.08h481.28a35.84 35.84 0 1 0 0-71.68H261.12a35.84 35.84 0 1 0 0 71.68z m0-174.08h481.28a35.84 35.84 0 1 0 0-71.68H261.12a35.84 35.84 0 1 0 0 71.68z"  horiz-adv-x="1024" />

    
    <glyph glyph-name="kongzhitai1" unicode="&#58880;" d="M1172.48 874.666667H192.853333c-29.226667 0-52.693333-23.68-52.693333-52.693334v-682.666666c0-29.226667 23.68-52.693333 52.693333-52.693334H659.2v-146.133333H350.08c-13.013333 0-23.466667-10.453333-23.466667-23.466667s10.453333-23.466667 23.466667-23.466666H1015.466667c13.013333 0 23.466667 10.453333 23.466666 23.466666s-10.453333 23.466667-23.466666 23.466667H706.133333v146.133333h466.346667c29.226667 0 52.693333 23.68 52.693333 52.693334v682.666666c0 29.226667-23.68 52.693333-52.693333 52.693334z m5.76-735.36c0-3.2-2.56-5.546667-5.546667-5.546667H192.853333c-3.2 0-5.546667 2.56-5.546666 5.546667v682.666666c0 3.2 2.56 5.546667 5.546666 5.546667h979.84c3.2 0 5.546667-2.56 5.546667-5.546667v-682.666666zM872.32 669.013333c-18.56-0.213333-36.053333-7.253333-49.066667-20.48s-20.053333-30.293333-20.053333-49.066666c0-7.68 1.493333-15.146667 3.626667-21.973334l-167.893334-61.013333c-9.173333 21.546667-24.533333 39.893333-44.16 52.48l16.213334 40.32c6.4-1.493333 12.8-2.56 19.413333-2.56h0.426667c20.053333 0 39.04 5.973333 53.12 20.48 14.08 14.506667 21.76 31.36 21.76 51.626667 0.213333 41.813333-33.493333 75.733333-75.52 75.733333-20.053333-0.213333-39.04-7.68-53.12-21.973333-14.08-14.506667-21.76-32.426667-21.76-52.693334 0.213333-27.093333 14.506667-49.92 36.053333-62.506666l-15.36-38.613334c-13.44 5.333333-27.946667 8.533333-43.306667 8.533334-63.573333 0-115.2-51.626667-115.2-115.2s51.626667-115.2 115.2-115.2c34.133333 0 64.853333 14.933333 85.973334 38.613333l74.453333-53.333333c-8.32-14.08-12.586667-30.08-12.373333-46.293334 0.213333-48.213333 39.466667-88.746667 87.04-88.746666h0.64c48 0 87.04 41.173333 86.613333 89.813333-0.213333 48-39.466667 88.533333-87.68 88.533333-23.04-0.213333-44.8-9.6-61.013333-26.026666l-74.88 53.333333c10.453333 17.28 16.426667 37.546667 16.426666 59.093333 0 8.32-0.853333 16.213333-2.56 23.893334l171.946667 62.72c13.226667-17.066667 33.706667-27.093333 55.253333-27.093334H873.173333c18.346667 0 36.053333 6.4 49.066667 19.626667s20.053333 29.866667 20.053333 48.426667c-0.213333 38.613333-31.573333 69.546667-69.973333 69.546666zM532.693333 378.026667c-51.84 0-93.866667 42.026667-93.866666 93.866666s42.026667 93.866667 93.866666 93.866667 93.866667-42.026667 93.866667-93.866667-42.026667-93.866667-93.866667-93.866666z"  horiz-adv-x="1365" />

    
    <glyph glyph-name="tingche" unicode="&#58905;" d="M197.8 834h324.4c189.4 0 304-112.3 304-274.5v-2.3c0-183.8-142.9-279-321-279H372.5V-66H197.8V834z m313.1-400.4c87.3 0 138.4 52.2 138.4 120.2v2.3c0 78.3-54.5 120.2-141.8 120.2h-135v-242.7h138.4z"  horiz-adv-x="1024" />

    
    <glyph glyph-name="gerenzhongxin2" unicode="&#58901;" d="M500.26874 895.989699a257.52349 257.52349 0 0 0 259.812588-255.615908 259.812588 259.812588 0 0 0-519.625175 0A257.52349 257.52349 0 0 0 500.26874 895.989699zM500.26874 895.989699a257.52349 257.52349 0 0 0 259.812588-255.615908 259.812588 259.812588 0 0 0-519.625175 0A257.52349 257.52349 0 0 0 500.26874 895.989699zM402.982089 299.679751h216.701248a333.063714 333.063714 0 0 0 335.734327-330.011583v-21.364912c0-71.725061-150.317415-76.303256-335.734327-76.303256H402.982089c-185.416913 0-335.734328 0-335.734328 76.303256v21.364912a333.063714 333.063714 0 0 0 335.734328 330.011583z"  horiz-adv-x="1024" />

    
    <glyph glyph-name="feiyong" unicode="&#58966;" d="M983.771515 583.312761a510.316621 510.316621 0 0 1-109.714051 162.669366A510.316621 510.316621 0 0 1 512.001097 895.997806a508.780624 508.780624 0 0 1-362.056367-149.942536A510.316621 510.316621 0 0 1 0.002194 383.998903a508.780624 508.780624 0 0 1 149.942536-362.056367A511.12119 511.12119 0 0 1 512.001097-127.853715c69.119852 0 136.191708 13.5314 199.313859 40.228486a508.341768 508.341768 0 0 1 162.669365 109.71405A511.12119 511.12119 0 0 1 1024 383.998903c0 69.119852-13.458257 136.191708-40.155343 199.313858z m-58.953017-373.759199a447.779612 447.779612 0 0 0-96.036365-142.335695A445.658474 445.658474 0 0 0 512.001097-64.000137c-60.489013 0-119.222602 11.775975-174.372198 35.181639a447.779612 447.779612 0 0 0-142.408837 96.036365A445.658474 445.658474 0 0 0 64.002057 383.998903c0 60.489013 11.775975 119.222602 35.181639 174.372198A447.779612 447.779612 0 0 0 195.293204 700.779938 445.658474 445.658474 0 0 0 512.001097 831.997943c60.489013 0 119.222602-11.775975 174.372198-35.181639 53.394171-22.674237 101.30264-54.857025 142.408838-96.036366A445.658474 445.658474 0 0 0 960.000137 383.998903c0-60.489013-11.775975-119.222602-35.181639-174.372198zM672.037326 383.998903a31.96336 31.96336 0 1 1 0 63.999863H557.276429l137.435134 137.435134a32.036503 32.036503 0 0 1-45.348474 45.275331L512.001097 493.274097 374.565963 630.562946a32.036503 32.036503 0 0 1-45.275331-45.275332l137.435134-137.288848H351.964869a31.96336 31.96336 0 1 1 0-63.999863h127.999725v-63.999863h-127.999725a31.96336 31.96336 0 1 1 0-63.999863h127.999725v-160.036228a31.96336 31.96336 0 1 1 63.999863 0V255.999177h127.999726a31.96336 31.96336 0 1 1 0 63.999863h-127.999726V383.998903h127.999726z"  horiz-adv-x="1024" />

    
    <glyph glyph-name="exit" unicode="&#58914;" d="M75.0933333333333 383.9320367407405l6.898685737892433e-14-446.59628562962956a58.195967999999986 58.195967999999986 0 0 1 58.263931259259266-58.20567703703702L424.48274014814825-120.86992592592605c32.15633066666666 4.311678586182771e-15 58.28334933333333 26.07847348148148 58.28334933333332 58.20567703703704a58.21538607407408 58.21538607407408 0 0 1-58.28334933333333 58.21538607407405l-232.85183525925927-5.1740143034193253e-14L191.63090488888895 772.4391537777777 424.60895762962946 772.4391537777777c32.136912592592594 6.467517879274157e-15 58.26393125925925 26.06876444444446 58.26393125925925 58.22509511111111S456.8429605925926 888.8699259259259 424.60895762962963 888.8699259259259l-291.241984-3.4493428689462167e-14a58.254222222222225 58.254222222222225 0 0 1-58.26393125925925-58.21538607407409l-0.009709037036910928-446.7225031111111z m883.687424 43.42852266666686A58.273640296296286 58.273640296296286 0 0 0 978.0337777777779 384.0000000000001c2.1558392930913854e-15-17.301504-7.398286222222215-32.63207348148148-19.253020444444434-43.36055940740741l-194.1321955555555-174.67528533333336A58.44840296296296 58.44840296296296 0 0 0 725.6764871111113 150.98311111111127c-32.15633066666666-4.311678586182771e-15-58.21538607407408 26.185272888888868-58.21538607407408 58.341603555555544a57.84644266666667 57.84644266666667 0 0 0 19.36952888888888 43.234341925925925l81.3423122962963 73.22555733333334-353.2924397037036-6.898685737892433e-14A58.20567703703703 58.20567703703703 0 0 0 356.65540740740744 384a58.21538607407408 58.21538607407408 0 0 0 58.21538607407407 58.22509511111112L767.9302162962964 442.2250951111111l-81.34231229629631 73.20613925925925a58.15713185185185 58.15713185185185 0 0 0-19.369528888888897 43.36055940740741A58.29305837037036 58.29305837037036 0 0 0 725.4337611851852 617.016888888889c15.029589333333332 1.0779196465456927e-15 28.64165925925926-5.602114370370365 38.981783703703705-14.98104414814814l194.3652124444444-174.67528533333333z"  horiz-adv-x="1024" />

    
    <glyph glyph-name="shebei" unicode="&#58881;" d="M130.29 734.471h241.133c9.761 0 17.571-7.809 17.571-17.571v-241.133c0-9.761-7.809-17.571-17.571-17.571h-241.133c-9.761 0-17.571 7.809-17.571 17.571v240.158c-0.975 9.761 7.809 18.55 17.571 18.55zM72.691 475.769c0-31.239 25.381-57.598 57.598-57.598h241.133c31.239 0 57.598 25.381 57.598 57.598v240.158c0 31.239-25.381 57.598-57.598 57.598h-241.133c-31.239 0-57.598-25.381-57.598-57.598v-240.158zM130.29 260.01599999999996h241.133c9.761 0 17.571-7.809 17.571-17.571v-241.133c0-9.761-7.809-17.571-17.571-17.571h-241.133c-9.761 0-17.571 7.809-17.571 17.571v241.133c-0.975 9.761 7.809 17.571 17.571 17.571zM72.691 2.2899999999999636c0-31.239 25.381-57.598 57.598-57.598h241.133c31.239 0 57.598 25.381 57.598 57.598v241.133c0 31.239-25.381 57.598-57.598 57.598h-241.133c-31.239 0-57.598-25.381-57.598-57.598v-241.133zM906.403 608.5350000000001c6.833-6.833 6.833-18.55 0-25.381l-169.865-169.865c-6.833-6.833-18.55-6.833-25.381 0l-169.865 169.865c-6.833 6.833-6.833 18.55 0 25.381l169.865 169.865c6.833 6.833 18.55 6.833 25.381 0l29.287-29.287c7.809-7.809 20.502-7.809 28.31 0s7.809 20.502 0 28.31l-29.287 29.287c-22.452 22.452-58.576 22.452-81.027 0l-169.865-169.865c-22.452-22.452-22.452-58.576 0-81.027l169.865-169.865c22.452-22.452 58.576-22.452 81.027 0l169.865 169.865c22.452 22.452 22.452 58.576 0 81.027l-32.215 32.215c-7.809 7.809-20.502 7.809-28.31 0s-7.809-20.502 0-28.31l32.215-32.215zM603.769 260.01599999999996h240.158c9.761 0 17.571-7.809 17.571-17.571v-241.133c0-9.761-7.809-17.571-17.571-17.571h-241.133c-9.761 0-17.571 7.809-17.571 17.571v241.133c0.975 9.761 8.788 17.571 18.55 17.571zM546.17 2.2899999999999636c0-31.239 25.381-57.598 57.598-57.598h240.158c31.239 0 57.598 25.381 57.598 57.598v241.133c0 31.239-25.381 57.598-57.598 57.598h-241.133c-31.239 0-57.598-25.381-57.598-57.598v-241.133z"  horiz-adv-x="1024" />

    
    <glyph glyph-name="caiwu1" unicode="&#58958;" d="M137.304731 806.625077h834.099946c28.735609 0 52.112684 20.159478 52.112684 44.749338S1000.140286 896 971.404677 896h-834.099946c-28.723234 0-52.112684-20.159478-52.112683-44.749338s23.4142-44.625585 52.112683-44.625585zM1053.651387 716.891268H52.112684C23.760711 717.262529 0.495015 694.88786 0 666.981401v-744.997281c0-27.535199 23.513203-49.909868 52.112684-49.909868h1001.538703a51.085528 51.085528 0 0 1 52.112683 49.909868v744.997281c0 27.287691-23.377074 49.909868-52.112683 49.909867zM724.57792 159.04671H599.710436V50.749846c0-27.535199-21.137132-49.909868-46.766524-49.909868s-46.766524 22.374669-46.766524 49.909868v108.098858h-124.867484c-28.723234 0-52.112684 20.159478-52.112684 44.749338s23.513203 44.749338 52.112684 44.749339h124.867484v64.116792h-124.867484c-28.723234 0-52.112684 20.159478-52.112684 44.873092 0 24.466107 23.513203 44.749338 52.112684 44.749338H450.463472l-25.617016 46.704647-30.369158 55.429283c-13.303523 24.342353-5.593667 53.597728 17.164638 65.03257s52.360191 0.866276 65.663714-23.352323l24.503233-44.551333a7.425222 7.425222 0 0 0 1.113783-2.215191l25.122001-45.78887 25.493263-46.222007 25.369509 46.345761 25.369508 45.78887a15.927101 15.927101 0 0 1 1.126159 1.967683l24.255725 44.551333c13.303523 24.342353 42.905408 34.910919 65.663714 23.352323 22.758306-11.311088 30.591915-40.690217 17.164639-65.03257l-30.344408-55.317904-25.617016-46.704647h67.656148c28.735609 0 52.360191-20.159478 52.360191-44.749338s-23.513203-44.873092-52.112683-44.873092H599.586682v-64.166294h124.867484c28.859363 0.123754 52.236437-20.035724 52.236438-44.551333s-23.513203-44.687461-52.112684-44.687461zM450.339718 399.240268h7.388096l-1.584047 2.957714-5.804049-2.957714z"  horiz-adv-x="1105" />

    
    <glyph glyph-name="jilu" unicode="&#58959;" d="M692.3008 895.9488H180.2752A128 128 0 0 1 52.2752 768v-768a128 128 0 0 1 128-127.9488h640.0256A128 128 0 0 1 948.2752 0V640L692.3008 895.9488zM884.3008 0c0-35.3024-28.6976-64-64-64H180.2752a64 64 0 0 0-64 64V768a64 64 0 0 0 64 64h415.0784c-0.5376-76.672 0.9216-192 0.9216-192 0-70.7072 57.3184-96 128-96h160V0z m-160.0256 608a64 64 0 0 0-64 64V832l224-224h-160zM692.3008 351.9744H308.2752a32 32 0 0 1 0-64h384.0256a32 32 0 0 1 0 64zM692.3008 192H308.2752a32 32 0 0 1 0-64h384.0256a32 32 0 0 1 0 64z"  horiz-adv-x="1024" />

    
    <glyph glyph-name="renzhengguanli" unicode="&#58895;" d="M953.6 716.8c0 19.2-12.8 38.4-32 38.4h-38.4s-83.2 0-166.4 38.4C627.2 819.2 569.6 864 569.6 864L544 883.2C531.2 889.6 512 889.6 499.2 883.2l-19.2-19.2s-57.6-38.4-147.2-76.8c-83.2-32-160-38.4-166.4-38.4H128c-19.2 0-32-19.2-32-38.4V320c0-102.4 57.6-211.2 153.6-307.2C339.2-76.8 448-128 524.8-128s185.6 51.2 275.2 140.8c102.4 96 153.6 204.8 153.6 307.2V716.8z m-211.2-243.2l-236.8-236.8c-6.4-6.4-19.2-12.8-32-12.8s-25.6 6.4-32 12.8L326.4 358.4c-6.4 6.4-12.8 19.2-12.8 32s6.4 25.6 12.8 32c19.2 19.2 44.8 19.2 64 0l83.2-83.2 204.8 204.8c19.2 19.2 44.8 19.2 64 0 6.4-6.4 12.8-19.2 12.8-32 0-19.2 0-32-12.8-38.4z"  horiz-adv-x="1024" />

    
    <glyph glyph-name="guanliyuanguanli--" unicode="&#58882;" d="M520.83 356.041c-130.972 0-237.524 106.557-237.524 237.532S389.858 831.103 520.83 831.103s237.529-106.554 237.529-237.529S651.802 356.041 520.83 356.041z m0 423.133c-102.337 0-185.595-83.261-185.595-185.6S418.493 407.97 520.83 407.97c102.342 0 185.6 83.264 185.6 185.603s-83.258 185.601-185.6 185.601zM924.723-62.896c-14.34 0-25.965 11.624-25.965 25.965 0 208.393-169.536 377.929-377.929 377.929s-377.928-169.537-377.928-377.93c0-14.34-11.624-25.965-25.965-25.965s-25.965 11.624-25.965 25.965c0 237.022 192.835 429.858 429.858 429.858s429.858-192.835 429.858-429.858c0-14.34-11.624-25.964-25.964-25.964zM517.657 35.936c-8.311 0-16.622 3.054-23.001 9.134l-65.058 61.908c-10.221 9.742-14.695 24.336-11.692 38.107l41.618 211.689c2.767 14.07 16.431 23.237 30.484 20.465 14.07-2.767 23.232-16.414 20.465-30.484l-40.587-206.432 48.182-45.849 52.836 46.92-43.308 202.487c-2.998 14.025 5.939 27.824 19.958 30.822 13.985 3.026 27.818-5.928 30.822-19.958l45.54-212.945c2.699-11.438-1.257-23.919-10.447-32.056l-73.713-65.464c-6.254-5.572-14.176-8.344-22.099-8.344z"  horiz-adv-x="1024" />

    
    <glyph glyph-name="guanliyuanguanli" unicode="&#58937;" d="M619.52 343.04c66.56 40.96 112.64 112.64 112.64 194.56 0 128-102.4 230.4-225.28 230.4-122.88 0-225.28-102.4-225.28-230.4 0-81.92 46.08-153.6 112.64-194.56-153.6-51.2-261.12-194.56-261.12-363.52 0-15.36 10.24-25.6 25.6-25.6s25.6 10.24 25.6 25.6c0 179.2 143.36 322.56 322.56 327.68l-122.88-225.28L512-25.6l133.12 112.64-122.88 225.28c168.96-10.24 307.2-153.6 307.2-327.68 0-15.36 10.24-25.6 25.6-25.6s25.6 10.24 25.6 25.6c5.12 168.96-107.52 312.32-261.12 358.4zM327.68 537.6c0 102.4 81.92 179.2 179.2 179.2S680.96 640 680.96 537.6s-76.8-179.2-174.08-179.2C409.6 363.52 327.68 440.32 327.68 537.6z m184.32-496.64l-71.68 56.32L512 230.4l71.68-128-71.68-61.44z"  horiz-adv-x="1024" />

    
    <glyph glyph-name="gongxiangchewei" unicode="&#59037;" d="M374.651 525.857v-381.923h50.046V299.04h98.387c53.369 0 91.725 11.67 111.736 33.357a119.122 119.122 0 0 1 31.684 81.723c0 18.337-3.35 36.707-11.672 51.695-8.346 15.013-18.337 28.359-30.008 36.701a130.04 130.04 0 0 1-46.696 18.342c-15.015 4.999-35.026 4.999-60.036 4.999H374.651z m195.135-48.371c13.34-3.349 23.336-11.671 31.677-23.341 8.348-11.665 11.671-25.01 11.671-41.699 0-21.687-6.673-38.35-20.012-51.697-13.345-11.665-36.707-18.337-70.058-18.337h-98.392V480.855h98.412c23.361-0.045 38.355-1.701 46.702-3.369zM714.87 637.588a24.219 24.219 0 0 1 0-35.033c4.997-4.993 11.67-6.667 18.342-6.667 6.668 0 11.666 3.324 16.688 6.667l91.719 91.725v-121.753h48.372V781.001H649.835v-48.371h160.103l-95.068-95.042z m0 0M873.303 502.495c-13.346 0-25.01-11.67-25.01-25.009v-425.275c0-21.687-16.689-38.35-38.355-38.35H217.895a37.735 37.735 0 0 0-27.301 11.05 37.736 37.736 0 0 0-11.05 27.3V692.632c0 21.686 16.688 38.35 38.351 38.35h320.209c13.34 0 25.01 11.67 25.01 25.01 0 13.339-11.67 25.009-25.01 25.009H217.895c-48.372 0-88.396-40.023-88.396-88.394v-640.416c0-48.372 40.025-88.401 88.396-88.401h592.043c48.371 0 88.4 40.029 88.4 90.075V477.486c0 13.339-11.671 25.009-25.035 25.009z m0 0"  horiz-adv-x="1024" />

    
    <glyph glyph-name="caidan2" unicode="&#58971;" d="M153.461 756.522c-7.141 0-12.966-5.825-12.966-12.966v-266.122c0-7.192 5.824-12.967 12.966-12.967H419.53a12.927 12.927 0 0 1 12.969 12.967V743.556c0 7.141-5.774 12.966-12.969 12.966H153.461z m454.134 0c-7.141 0-12.965-5.825-12.965-12.966v-266.122c0-7.192 5.824-12.967 12.965-12.967h266.172c7.092 0 12.966 5.773 12.966 12.967V743.556c0 7.141-5.873 12.966-12.966 12.966H607.595z m0 31.606h266.172c24.565 0 44.572-20.109 44.572-44.571v-266.122c0-24.566-20.005-44.674-44.572-44.674H607.595c-24.511 0-44.571 20.058-44.571 44.674V743.557c0.001 24.462 20.005 44.572 44.571 44.572zM153.461 302.386c-7.141 0-12.966-5.822-12.966-12.912v-266.126c0-7.192 5.824-12.965 12.966-12.965H419.53a12.927 12.927 0 0 1 12.969 12.965V289.474c0 7.091-5.774 12.912-12.969 12.912H153.461z m0 31.708H419.53c24.566 0 44.677-20.056 44.677-44.619V23.35c0.05-24.616-20.057-44.67-44.622-44.67H153.462c-24.517 0-44.572 20.055-44.572 44.67V289.475c0 24.512 20.056 44.619 44.572 44.619z m454.134 0h266.172c24.565 0 44.572-20.056 44.572-44.619V23.35c0-24.564-20.005-44.67-44.572-44.67H607.595c-24.511 0-44.571 20.055-44.571 44.67V289.475c0.001 24.512 20.005 44.619 44.571 44.619zM153.461 788.128H419.53c24.566 0 44.677-20.109 44.677-44.571v-266.122c0-24.566-20.11-44.674-44.677-44.674H153.461c-24.517 0-44.572 20.107-44.572 44.674V743.557c0 24.462 20.056 44.572 44.572 44.572z m0 0z"  horiz-adv-x="1024" />

    
    <glyph glyph-name="shebei1" unicode="&#58903;" d="M403.941 896H91.983C41.281 896 0 854.723 0 804.013V384.07c0-50.707 41.281-91.988 91.983-91.988h311.958c50.71 0 91.991 41.281 91.991 91.988V804.013C495.932 854.723 454.651 896 403.941 896z m28-511.93c0-15.427-12.57-27.997-28-27.997H91.983c-15.422 0-27.992 12.569-27.992 27.997V804.013c0 15.426 12.57 27.996 27.992 27.996h311.958c15.43 0 28-12.569 28-27.996V384.07z m-28-148.014H91.983C41.281 236.056 0 194.775 0 144.068v-179.941c0-50.706 41.281-91.987 91.983-91.987h311.958c50.71 0 91.991 41.281 91.991 91.987V144.068c0 50.707-41.281 91.988-91.991 91.988z m28-271.929c0-15.426-12.57-27.996-28-27.996H91.983c-15.422 0-27.992 12.57-27.992 27.996V144.068c0 15.428 12.57 27.997 27.992 27.997h311.958c15.43 0 28-12.569 28-27.997v-179.941z m499.928 511.93H619.911c-50.702 0-91.983-41.277-91.983-91.987v-419.943c0-50.706 41.281-91.987 91.983-91.987h311.958c50.71 0 91.991 41.281 91.991 91.987V384.07c0 50.71-41.281 91.987-91.991 91.987z m28-511.93c0-15.426-12.57-27.996-28-27.996H619.911c-15.422 0-27.991 12.57-27.991 27.996V384.07c0 15.426 12.569 27.997 27.991 27.997h311.958c15.43 0 28-12.57 28-27.997v-419.943zM931.869 896H619.911c-50.702 0-91.983-41.277-91.983-91.987v-179.938c0-50.71 41.281-91.988 91.983-91.988h311.958c50.71 0 91.991 41.277 91.991 91.988V804.013C1023.86 854.723 982.579 896 931.869 896z m28-271.925c0-15.426-12.57-27.996-28-27.996H619.911c-15.422 0-27.991 12.57-27.991 27.996V804.013c0 15.426 12.569 27.996 27.991 27.996h311.958c15.43 0 28-12.569 28-27.996v-179.938z"  horiz-adv-x="1024" />

    
    <glyph glyph-name="zhuanhuan" unicode="&#58904;" d="M1003.921569 519.529412c0-5.019608 0-15.058824-5.019608-20.078432v-5.019607c0-5.019608-5.019608-10.039216-10.039216-15.058824-5.019608 0-5.019608-5.019608-10.039216-5.019608h-5.019607c-5.019608-5.019608-10.039216-5.019608-20.078432-5.019608H50.196078c-25.098039 0-50.196078 20.078431-50.196078 50.196079 0 25.098039 20.078431 50.196078 50.196078 50.196078h788.078432l-190.745098 190.745098c-20.078431 20.078431-20.078431 50.196078 0 70.27451 20.078431 20.078431 50.196078 20.078431 70.27451 0l271.058823-276.078431 5.019608-5.019608c0-5.019608 5.019608-5.019608 5.019608-10.039216 5.019608-10.039216 5.019608-15.058824 5.019608-20.078431z m-50.196079-240.941177c25.098039 0 50.196078-20.078431 50.196079-50.196078s-20.078431-50.196078-50.196079-50.196079H170.666667l190.745098-190.745098c20.078431-20.078431 20.078431-50.196078 0-70.274509l-5.019608-5.019608c-20.078431-20.078431-50.196078-20.078431-70.27451 0L15.058824 183.215686c-10.039216 20.078431-15.058824 30.117647-15.058824 45.176471 0 25.098039 20.078431 50.196078 50.196078 50.196078h903.529412z"  horiz-adv-x="1024" />

    
    <glyph glyph-name="chevron-copy-copy-copy-copy-copy-copy" unicode="&#58891;" d="M774.656 406.43l-479.122 479.157c-13.943 13.90700001-36.48 13.907-50.422 0-13.943-13.943-13.94300001-36.515 0-50.458l455.73-455.765-448.205-448.241c-13.551-13.516-13.551-35.446 0-48.961 13.515-13.586 35.44600001-13.586 48.995 0l465.5 465.464c1.819 1.819 2.71 4.03 4.03000001 6.133 1.105 0.82 2.461 1.248 3.49499999 2.282 13.907 13.907 13.907 36.48 0 50.387z"  horiz-adv-x="1024" />

    
    <glyph glyph-name="DataAnalysis" unicode="&#58890;" d="M1060.984-128c13.312 0 24.204 13.542 24.204 30.255s-10.892 30.255-24.204 30.255H24.82C11.51-67.49000000000001 0.617-81.03200000000004 0.617-97.745S11.51-128 24.821-128zM217.836 496.633H72.612A72.612 72.612 0 0 1 0 424.021v-338.856a72.612 72.612 0 0 1 72.612-72.612h145.224a72.612 72.612 0 0 1 72.612 72.612V424.02a72.612 72.612 0 0 1-72.612 72.612z m12.102-399.366a24.204 24.204 0 0 0-24.204-24.204H84.714a24.204 24.204 0 0 0-24.204 24.204V411.919a24.204 24.204 0 0 0 24.204 24.204h121.02a24.204 24.204 0 0 0 24.204-24.204zM615.521 896H470.296a72.612 72.612 0 0 1-72.612-72.612v-738.223a72.612 72.612 0 0 1 72.612-72.612h145.225a72.612 72.612 0 0 1 72.612 72.612V823.388A72.612 72.612 0 0 1 615.52 896z m12.102-798.733a24.204 24.204 0 0 0-24.204-24.204h-121.02a24.204 24.204 0 0 0-24.205 24.204V811.2860000000001a24.204 24.204 0 0 0 24.204 24.204h121.02a24.204 24.204 0 0 0 24.205-24.204z m385.582 580.897H867.981a72.612 72.612 0 0 1-72.612-72.612v-520.387a72.612 72.612 0 0 1 72.612-72.612h145.224a72.612 72.612 0 0 1 72.612 72.612V605.552a72.612 72.612 0 0 1-72.612 72.612z m12.102-580.897a24.204 24.204 0 0 0-24.204-24.204h-121.02a24.204 24.204 0 0 0-24.204 24.204V593.45a24.204 24.204 0 0 0 24.204 24.204h121.02a24.204 24.204 0 0 0 24.204-24.204z"  horiz-adv-x="1085" />

    
    <glyph glyph-name="caiwu" unicode="&#59115;" d="M820 620c77.184 0 140-62.8 140-140v-360c0-77.2-62.816-140-140-140H220c-77.184 0-140 62.8-140 140V480c0 77.2 62.816 140 140 140h600z m100-500V480a100.112 100.112 0 0 1-100 100H220a100.112 100.112 0 0 1-100-100v-360a100.112 100.112 0 0 1 100-100h600a100.112 100.112 0 0 1 100 100zM220 680a20 20 0 1 0 0 40h600a20 20 0 1 0 0-40H220z m60 80a20 20 0 1 0 0 40h480a20 20 0 1 0 0-40H280z m314.016-290.48h50.496L569.76 312.48h48.528v-31.44h-63.552l-6.384-13.008v-32.336h70v-31.408h-70v-76.992h-44.56v76.992h-69.856v31.408h69.856v32.336l-6.352 13.008h-63.52v31.44h48.48l-74.624 157.04h50.256l67.984-152.08 68 152.08z"  horiz-adv-x="1024" />

    
    <glyph glyph-name="renyuan1" unicode="&#59051;" d="M134.36 195.89999999999998V348c0 7.56 1.26 13.32 2.34 16.74l21.06 4.32c46.8 9.18 95.4 18.9 120.24 52.56 7.2 9.54 10.08 23.76 10.08 48.6 0 12.06-5.04 23.58-14.04 31.32-27.9 24.66-46.8 69.3-46.98 111.06-0.54 50.04 2.52 104.76 28.98 131.4 13.32 13.14 32.76 19.8 59.76 19.8 44.1 0 66.78-17.1 78.66-58.86l46.62 19.62C422.9 788.64 382.94 816 315.8 816c-41.04 0-73.8-11.88-97.02-35.46C200.24 762 188.36 736.8 181.34 704.04c-5.04-24.3-7.2-53.64-6.84-92.16 0.54-54.54 24.48-111.24 61.02-145.98-0.18-8.64-0.9-12.96-1.26-14.94-13.86-16.2-51.12-23.58-86.94-30.78-9.18-1.8-18.72-3.78-28.08-5.76C96.56 409.2 81.8 383.28 81.8 348v-150.48c0-11.7 0.72-21.24 3.78-29.7 5.58-15.12 18.72-24.3 34.92-24.3h6.84l16.2 52.2h-9.18zM904.76 414.24c-9.36 1.98-18.9 3.96-28.08 5.76-35.82 7.2-73.08 14.58-86.94 30.78-0.36 1.98-1.08 6.3-1.26 14.94 36.54 34.74 60.48 91.44 61.02 145.98 0.36 38.52-1.8 67.86-6.84 92.16-6.84 32.94-18.9 57.96-37.26 76.5C782 803.94 749.42 816 708.2 816c-67.32 0-108.9-27.18-127.26-91.26l48.42-19.62C641.42 746.7 664.1 763.8 708.2 763.8c27 0 46.62-6.66 59.94-19.98 26.46-26.64 29.52-81.36 28.98-131.4-0.36-41.58-19.26-86.22-46.98-110.88-9-7.74-14.04-19.26-14.04-31.32 0-24.84 2.88-39.06 10.08-48.6 24.84-33.66 73.44-43.38 120.24-52.56l21.06-4.32c1.08-3.42 2.34-9.18 2.34-16.74v-152.28h-9.36l16.2-52.2h6.84c16.2 0 29.34 9.18 34.92 24.3 3.06 8.46 3.78 18 3.78 29.7V348c0 35.28-14.76 61.2-37.44 66.24zM884.96-1.5599999999999454c-4.14 68.94-15.3 160.56-46.08 204.48-29.7 42.48-87.12 54-142.74 65.16-40.68 8.1-82.62 16.56-98.28 36-0.54 1.98-1.44 7.38-1.62 19.62 40.68 38.16 67.32 101.34 67.86 162.36 0.36 43.02-1.98 75.6-7.56 102.78-7.38 36.36-20.88 64.08-40.86 84.24-19.26 19.44-44.64 31.5-75.6 36.18-1.44 0.18-3.06 0.36-4.5 0.54-0.54 0-1.08 0.18-1.62 0.18-4.86 0.54-9.72 0.9-14.76 1.08h-0.72c-2.52 0-5.04 0.18-7.56 0.18h-0.18-0.18c-2.52 0-5.04 0-7.56-0.18h-0.72c-5.04-0.18-10.08-0.54-14.76-1.08-0.54 0-1.08-0.18-1.62-0.18-1.44-0.18-3.06-0.36-4.5-0.54-30.96-4.68-56.34-16.74-75.6-36.18-19.98-20.16-33.48-47.88-40.86-84.24-5.58-27.18-7.92-59.76-7.56-102.78 0.54-61.02 27.18-124.2 67.86-162.36-0.18-12.24-1.08-17.64-1.62-19.62-15.66-19.44-57.6-27.9-98.28-36-55.62-11.16-113.04-22.68-142.74-65.16-30.96-43.92-42.3-135.54-46.44-204.48v-0.18c-0.72-12.06 3.78-23.76 12.06-32.58 8.28-8.64 19.8-13.68 31.86-13.68h660.96c12.06 0 23.58 5.04 31.86 13.68 8.28 8.82 12.78 20.52 12.06 32.76zM628.82 4.2000000000000455H189.08c5.4 81.18 18.72 144 36.18 168.84 14.76 21.06 49.5 31.14 86.94 39.06 7.38 1.08 13.5 1.26 24.66 3.6 50.94 10.62 103.68 21.6 130.86 58.5l0.36 0.54c2.88 4.14 10.8 15.3 9.9 53.1-0.18 11.88-5.58 23.76-14.58 31.86-31.68 28.62-52.92 79.92-53.1 127.98 0 108.9 19.26 157.32 71.46 168.84 0.54 0.18 1.26 0.18 1.8 0.36 0.36 0 0.72 0.18 1.08 0.18 7.92 1.44 16.56 2.16 25.92 2.16 9.36 0 18-0.72 25.92-2.16 0.36 0 0.72-0.18 1.08-0.18 0.72-0.18 1.26-0.18 1.8-0.36 52.2-11.52 71.46-59.94 71.46-168.84-0.18-48.06-21.42-99.36-53.1-127.98-9-8.1-14.4-19.98-14.58-31.86-0.9-37.8 7.02-48.96 9.9-53.1l0.36-0.54c27.18-36.9 79.92-47.88 130.86-58.5 11.34-2.34 17.46-2.52 24.66-3.6 37.44-8.1 72.18-18 86.94-39.06 17.46-24.84 30.78-87.66 36.18-168.84H628.82z"  horiz-adv-x="1024" />

    
    <glyph glyph-name="daolufangyang" unicode="&#58886;" d="M763.87447 138.639525H282.012553l82.423749 603.022222h317.101272zM484.380662-128l1.650212 40.126209h73.912129l1.563358-40.126209zM489.244444-6.318575l3.213571 81.468363h61.057846l3.213571-81.468363zM495.671586 156.705004l3.213571 81.468363h48.203562l3.213571-81.468363zM502.098728 319.728584l3.213571 81.468363h35.262425l3.300424-81.468363zM508.525869 482.752163l3.213571 81.555216h22.408143l3.213571-81.555216zM514.953011 645.775742l3.213571 81.555216h9.553859l3.213571-81.555216zM521.380153 808.799321l1.563358 40.213062 1.563359-40.213062zM741.987447 160.960814H260.12553L342.462426 763.983036h317.101272zM462.493639-105.678711l1.563358 40.213062h73.912129l1.650212-40.213062zM467.270568 16.002714l3.213571 81.555216h61.057846l3.213571-81.555216zM473.69771 179.026293l3.213571 81.555217h48.203562l3.213571-81.555217zM480.124852 342.049873l3.300424 81.555216h35.262425l3.213571-81.555216zM486.638846 505.073452l3.213571 81.555216h22.408143l3.213571-81.555216zM493.065988 668.097031l3.213571 81.555217h9.553859l3.213571-81.555217zM499.49313 831.120611l1.563359 40.213062 1.563358-40.213062z"  horiz-adv-x="1024" />

    
    <glyph glyph-name="tingchewei" unicode="&#58938;" d="M592 643.94H432a20 20 0 0 1 0-40h160a20 20 0 0 1 0 40zM765.95 104V704h-40v-0.06h-427.9V704h-40v-600h-60v-40h160v40h-60V663.94h427.9V104h-60v-40h160v40h-60zM427.59 516.03h40v-264.06h-40zM512.59 431.03m-65 0a65 65 0 1 1 130 0 65 65 0 1 1-130 0ZM512.59 476a45 45 0 1 0-45-45 45.05 45.05 0 0 0 45 45m0 40a85 85 0 1 1 85-85 85 85 0 0 1-85 85z"  horiz-adv-x="1024" />

    
    <glyph glyph-name="jiaofei" unicode="&#58973;" d="M974.781523 59.66941299999996h-232.413483c-4.602247 0-9.460175-1.278402-13.806742-3.579525l-218.606741-130.397004H182.427965c-30.425968 0-55.226966 24.800999-55.226966 55.482647v20.454432c0 30.425968 24.800999 55.482647 55.226966 55.482646h160.05593c2.812484-11.505618 8.437453-21.988514 17.130587-30.681648l6.64769-6.64769c12.78402-12.78402 29.403246-19.17603 46.278153-19.17603 16.107865 0 32.21573 5.880649 44.74407 17.641948l182.811485 139.601498c5.624969 4.346567 9.460175 10.738577 10.227216 17.641947 1.022722 6.903371-0.767041 14.062422-5.113608 19.943071-8.948814 11.761298-25.82372 14.062422-37.585019 4.857928l-184.345568-140.62422-2.556804-2.301123c-4.602247-4.602247-12.016979-4.346567-16.619226-0.255681l-6.64769 6.647691c-3.068165 3.068165-3.323845 6.64769-3.323845 8.437453 0 1.789763 0.25568 5.113608 3.323845 7.926092l289.174532 283.805244H974.781523c14.829463 0 26.846442 12.016979 26.846442 26.846442s-12.016979 26.846442-26.846442 26.846442h-96.391511c1.534082 14.829463 2.556804 29.658926 2.556804 44.488389C880.946816 700.404494 687.141074 893.954557 449.102622 893.954557 211.06417 894.465918 17.514107 700.915855 17.514107 462.877403c0-85.397253 34.772534-214.771536 99.459676-286.362047 5.113608-5.880649 12.52834-8.948814 19.943071-8.948814 6.39201 0 12.78402 2.301124 17.897628 6.903371 10.994257 9.715855 11.761298 26.846442 1.789763 37.840699-52.925843 58.550811-85.652934 175.396754-85.652934 250.311111C71.206991 671.001248 240.978777 840.773034 449.358302 840.773034S827.253933 671.001248 827.253933 462.621723c0-14.829463-1.022722-29.658926-2.812485-44.48839h-147.27191c-6.64769 0-12.52834-2.556804-17.386267-6.64769-2.045443-1.278402-4.346567-2.045443-6.13633-4.090886l-294.032459-288.407491c-2.556804-2.556804-4.602247-5.369288-6.903371-8.181773H182.427965c-60.084894 0-109.175531-48.834956-109.175531-109.17553v-20.454432c0-60.084894 48.834956-109.175531 109.175531-109.175531h335.197004c4.857928 0 9.460175 1.278402 13.806741 3.835206l218.606742 130.397004h224.998751c14.829463 0 26.846442 12.016979 26.846442 26.846442-0.25568 14.573783-12.272659 26.590762-27.102122 26.590761zM318.705618 430.150312c-14.829463 0-26.846442-12.016979-26.846442-26.846442s12.016979-26.846442 26.846442-26.846442h97.414232v-68.010986c0-14.829463 12.016979-26.846442 26.846442-26.846442s26.846442 12.016979 26.846442 26.846442v68.010986h97.158552c14.829463 0 26.846442 12.016979 26.846442 26.846442s-12.016979 26.846442-26.846442 26.846442h-97.158552v47.812235h97.158552c14.829463 0 26.846442 12.016979 26.846442 26.846442s-12.016979 26.846442-26.846442 26.846442h-53.692884l47.300874 98.181273c6.39201 13.295381 1.022722 29.403246-12.52834 35.795256-13.295381 6.39201-29.403246 0.767041-36.050936-12.52834l-58.295131-121.448189H425.068664L366.773533 653.10362c-6.39201 13.295381-22.499875 18.92035-35.795256 12.52834-13.295381-6.39201-18.92035-22.499875-12.528339-35.795256l47.045193-98.181273h-46.789513c-14.829463 0-26.846442-12.016979-26.846442-26.846442s12.016979-26.846442 26.846442-26.846442h97.414232v-47.556554h-97.414232z m0 0"  horiz-adv-x="1024" />

    
    <glyph glyph-name="caidan" unicode="&#58960;" d="M0.1024 629.76l266.24 266.24 266.0352-266.24L266.24 363.52z m573.44 225.28h450.56v-450.56h-450.56V855.04z m-532.48-532.48h450.56v-450.56H40.96V322.56z m532.48 0h450.56v-450.56h-450.56V322.56z"  horiz-adv-x="1024" />

    
    <glyph glyph-name="yonghu" unicode="&#59205;" d="M599.944-63H424.056C258.826-63 128-63 128 26.593v18.644C128 217.173 260.765 357 424.056 357h175.888C763.235 357 896 217.173 896 45.237v-18.644C896-63 758.874-63 599.944-63zM512 385c-123.57 0-224 100.495-224 224S388.43 833 512 833s224-100.495 224-224-100.43-224-224-224z"  horiz-adv-x="1024" />

    
    <glyph glyph-name="shoufeiguanli" unicode="&#58899;" d="M447.488 131.072H249.856q-27.648 2.048-42.496 23.04t-17.92 46.592q3.072 25.6 17.92 41.984t42.496 18.432h197.632v64.512l-197.632 1.024q-27.648 2.048-42.496 19.456t-17.92 44.032q3.072 25.6 17.92 41.984t42.496 18.432h147.456L260.096 692.224q-10.24 12.288-19.456 31.232t-8.192 41.472q5.12 28.672 20.48 46.592t57.344 23.04q24.576-2.048 44.032-16.896t31.744-32.256l155.648-284.672 171.008 286.72q12.288 17.408 31.744 30.72T788.48 834.56q15.36-1.024 28.16-4.096t22.528-10.24 16.384-20.48 9.728-34.816q0-29.696-20.48-56.32L686.08 450.56h150.528q26.624-2.048 41.984-18.432T896 390.144q-2.048-26.624-17.92-45.056t-42.496-20.48L640 323.584v-62.464h196.608q26.624-2.048 41.984-20.48T896 196.608q-2.048-26.624-17.408-44.544t-41.984-19.968L640 133.12v-108.544q-4.096-87.04-95.232-87.04-45.056 0-70.144 21.504t-27.136 65.536V131.072z"  horiz-adv-x="1024" />

    
    <glyph glyph-name="shujuquxianzoushiqushijiantouzhuzhuangtubiao" unicode="&#59701;" d="M827.818667 725.333333H753.777778a28.444444 28.444444 0 0 0 0 56.888889h142.08a28.444444 28.444444 0 0 0 28.444444-28.444444v-142.165334a28.444444 28.444444 0 1 0-56.888889 0V684.458667l-212.707555-209.607111a28.444444 28.444444 0 0 0-38.4-1.393778L345.258667 704.568889l-195.697778-227.982222a28.444444 28.444444 0 1 0-43.150222 37.063111l214.158222 249.457778a28.444444 28.444444 0 0 0 40.049778 3.128888l272.753777-232.561777L827.818667 725.333333zM640 327.111111a28.444444 28.444444 0 0 0 28.444444-28.444444v-284.444445a28.444444 28.444444 0 0 0-56.888888 0V298.666667a28.444444 28.444444 0 0 0 28.444444 28.444444z m-512 0a28.444444 28.444444 0 0 0 28.444444-28.444444v-284.444445a28.444444 28.444444 0 0 0-56.888888 0V298.666667a28.444444 28.444444 0 0 0 28.444444 28.444444z m256 170.666667a28.444444 28.444444 0 0 0 28.444444-28.444445v-455.111111a28.444444 28.444444 0 0 0-56.888888 0V469.333333a28.444444 28.444444 0 0 0 28.444444 28.444445z m512 0a28.444444 28.444444 0 0 0 28.444444-28.444445v-455.111111a28.444444 28.444444 0 0 0-56.888888 0V469.333333a28.444444 28.444444 0 0 0 28.444444 28.444445z"  horiz-adv-x="1024" />

    
    <glyph glyph-name="gerenzhongxin" unicode="&#58926;" d="M647.196432 306.306723a310.685957 310.685957 0 0 1 173.077788 278.941958C820.27422 756.866723 682.252092 896 511.984858 896 341.739411 896 203.717283 756.866723 203.717283 585.248681c0-122.662128 70.677787-228.417362 173.077788-278.941958C206.876432 251.446468 78.920007 96.626383 65.455496-90.961702a34.445617 34.445617 0 0 1 31.700426-36.929362 34.314894 34.314894 0 0 1 36.62434 31.961873c14.248851 198.939234 180.398298 354.805106 378.226383 354.805106 197.806298 0 363.955745-155.865872 378.226383-354.805106a34.380255 34.380255 0 0 1 36.624341-31.961873 34.42383 34.42383 0 0 1 31.700425 36.929362c-13.464511 187.588085-141.420936 342.429957-311.361362 397.290213zM272.238134 585.248681c0 133.490383 107.345702 241.685787 239.746724 241.685787 132.422809 0 239.768511-108.195404 239.768511-241.685787S644.407666 343.562894 512.006645 343.562894c-132.401021 0-239.746723 108.195404-239.746723 241.685787z"  horiz-adv-x="1024" />

    
    <glyph glyph-name="xiazai" unicode="&#60099;" d="M977.92-25.6c0-22.528-18.432-40.96-40.96-40.96h-860.16c-22.528 0-40.96 18.432-40.96 40.96s18.432 40.96 40.96 40.96h860.16c22.528 0 40.96-18.432 40.96-40.96z m-471.04 116.736c-22.528 0-40.96 18.432-40.96 40.96V834.56c0 22.528 18.432 40.96 40.96 40.96s40.96-18.432 40.96-40.96v-702.464c0-22.528-18.432-40.96-40.96-40.96z m28.672 12.288c-16.384-16.384-41.984-16.384-58.368 0L168.96 412.672c-16.384 16.384-16.384 41.984 0 58.368 16.384 16.384 41.984 16.384 58.368 0l309.248-309.248c15.36-16.384 15.36-43.008-1.024-58.368z m-58.368 0c-16.384 16.384-16.384 41.984 0 58.368l309.248 309.248c16.384 16.384 41.984 16.384 58.368 0 16.384-16.384 16.384-41.984 0-58.368L535.552 103.424c-15.36-16.384-41.984-16.384-58.368 0z m0 0"  horiz-adv-x="1024" />

    
    <glyph glyph-name="dingdan1" unicode="&#58883;" d="M740.3695531 844.96930133H543.79189384c-24.11360711 0-43.38968652-21.45333097-43.38968653-47.97113836 0-26.574848 19.30884741-48.09492859 43.38968653-48.0949286h197.79492978c22.89755022 0 42.205184 21.52008059 42.205184 48.0949286 0.00242725 26.51902103-19.27729303 47.97113837-43.4212409 47.97113836z m213.45560651-32.02040415h-97.89136592c0.99396267-5.25258903 1.56922311-10.56828682 1.56922311-15.94830696 0.032768-40.37988503-29.26425125-80.11897363-64.1063443-80.11897363H492.65560938c-36.667392 0-66.00082015 39.73787497-66.00082013 80.11897363 0.03398163 5.38002015 0.60924208 10.6945043 1.60320472 15.94830696h-99.07586844c-79.63958992 0-99.20451318-45.14944948-99.20451317-110.28009718V57.49722075c0-69.96817541 28.01906725-109.12714903 105.21926162-109.12714905h612.60382816c77.20626252 0 114.73169067 30.703616 114.73169066 109.09195378V702.66758637c0.00606815 65.12943408-35.12608237 110.27888355-108.70966045 110.27888355z m-100.5771283-637.00506548H427.55166152c-15.69223111 0-31.35169422 19.24573867-31.35169422 34.96588327 0 15.65946311 13.2589037 29.07856592 28.94628031 29.07856592h424.48031287c15.68616297 0 28.9462803-12.20061867 30.1344237-29.07856592 0-15.72257185-10.82678992-34.96588325-26.5141665-34.96588327z m1.72942221 170.82565215H429.28108375c-15.69223111 0-25.68283022 16.87430637-25.68283021 32.60051912 0 15.72014459 13.2589037 31.4451437 28.9462803 31.4451437h424.48031288c15.69223111 0 28.9462803-14.56719645 30.13442371-31.4451437 0-15.72014459-16.52235378-32.60051911-32.18060328-32.60051912z m0 175.45079467H429.28108375c-15.69223111 0-25.68283022 16.87430637-25.68283021 32.59566459s13.2589037 31.44757097 28.9462803 31.44757097h424.48031288c15.69223111 0 28.9462803-14.57326459 30.13442371-31.44757097 0-15.72014459-16.52235378-32.59566459-32.18060328-32.59566459z m0 0z"  horiz-adv-x="1449" />

    
    <glyph glyph-name="jiantou2" unicode="&#58887;" d="M278.28524668 775.19107693L671.6211045 386.00611649l-390.79015587-394.95160213c-17.34514-17.34363176-17.28334314-45.52571658 0.13414259-62.94320232l0.00150679 0c17.41748576-17.41899399 45.59806231-17.47928261 62.93415874 4.31669104L760.77192624 349.29916963999995c5.62345399 6.29416999 12.08643271 13.72930778 13.15806976 17.74153928 6.58506418 16.36695089 3.28876368 36.47633978-9.88437822 53.0060708l-422.69508331 422.6950833c-17.49133974 13.0314625-45.80153861 13.09928792-63.22053113-4.31970606C260.7140229 821.0031659 260.78184833 792.69447527 278.28524668 775.19107693z"  horiz-adv-x="1024" />

    
    <glyph glyph-name="diannao" unicode="&#58908;" d="M891.71 801.89h-759.4A87.29 87.29 0 0 1 45 714.61v-505.3A87.29 87.29 0 0 1 132.31 122h350.12v-113.45h-91.8c-15.33 0-28.48-11.63-29.59-26.92a29.1 29.1 0 0 1 29-31.27h242.38c15.33 0 28.48 11.63 29.59 26.92a29.1 29.1 0 0 1-29 31.27h-92.39V122h351.09A87.29 87.29 0 0 1 979 209.31v505.3a87.29 87.29 0 0 1-87.29 87.28z m-759.4-57.22h760.37a29.1 29.1 0 0 0 29.1-29.1v-324.9H103.22V715.58a29.1 29.1 0 0 0 29.09 29.09z m760.37-564.45H132.31a29.1 29.1 0 0 0-29.1 29.1V331.51h818.56v-122.2a29.1 29.1 0 0 0-29.09-29.09z"  horiz-adv-x="1024" />

    
    <glyph glyph-name="xiaoxi" unicode="&#58911;" d="M953.5 189.6c0-7.1-2.9-13.5-7.5-18.1-4.6-4.6-11-7.5-18.1-7.5H102.6C88.5 164 77 175.4 77 189.6c0 7.1 2.9 13.5 7.5 18.1 4.6 4.6 11 7.5 18.1 7.5h128.9V485.4c0 146.9 112.3 268.2 255.6 282.3V803.1c0 15.5 12.6 28.1 28.1 28.1 15.5 0 28.1-12.6 28.1-28.1v-35.4C686.7 753.6 799 632.4 799 485.4c0-15.5-12.6-28.1-28.1-28.1s-28.1 12.6-28.1 28.1c0 125.5-102 227.5-227.5 227.5s-227.5-102-227.5-227.5v-270.2h455v112c0 15.5 12.6 28.1 28.1 28.1s28.1-12.6 28.1-28.1v-112h129c14.1 0 25.5-11.4 25.5-25.6zM515.3-61.2c-84 0-152.3 68.3-152.3 152.3 0 15.5 12.6 28.1 28.1 28.1s28.1-12.6 28.1-28.1c0-53 43.1-96 96-96s96 43.1 96 96c0 15.5 12.6 28.1 28.1 28.1 15.5 0 28.1-12.6 28.1-28.1 0.2-84-68.1-152.3-152.1-152.3z"  horiz-adv-x="1024" />

    
    <glyph glyph-name="admin" unicode="&#58970;" d="M878.592 114.68799999999999q4.096-14.336 7.168-36.352t3.072-44.544-3.584-42.496-10.752-30.208q-5.12-7.168-26.112-13.824t-52.736-12.288-70.656-10.752-77.824-8.704-75.776-5.12-64.512-1.536-64 2.048-74.752 5.12-76.288 7.168-69.12 9.216-53.248 9.728-27.136 9.728Q133.12-40.960000000000036 128-2.5599999999999454t4.096 99.84q5.12 34.816 28.16 53.248t53.248 29.184 63.488 18.944 57.856 24.576q19.456 12.288 30.208 23.552t15.36 22.528 4.608 23.552T384 320.51199999999994q-2.048 22.528-14.848 34.816t-28.16 25.6q-8.192 6.144-13.824 17.92t-10.752 24.064q-5.12 13.312-9.216 29.696-2.048 2.048-6.144 7.168-3.072 5.12-7.168 13.824t-9.216 25.088-6.656 29.184 0.512 22.016q1.024 11.264 5.12 19.456 0 35.84 4.096 71.68 4.096 29.696 13.312 64.512T330.752 768q18.432 25.6 39.936 42.496t44.544 26.112 46.592 12.8 45.056 3.584q23.552-2.048 38.4-5.632t24.064-8.704 15.872-12.288 13.824-14.336h19.456q9.216 0 17.92-2.56t17.408-9.728 18.944-20.48q23.552-30.72 34.816-67.072t16.384-69.12q5.12-37.888 6.144-74.752 2.048-5.12 3.072-12.288t1.536-17.408-1.536-25.6q-2.048-20.48-6.144-32.256t-9.216-17.92q-5.12-7.168-11.264-10.24-4.096-16.384-9.216-29.696-5.12-12.288-10.752-24.064t-13.824-17.92q-17.408-14.336-28.672-24.064t-15.36-33.28q-3.072-14.336-2.048-28.672t7.68-29.184 21.504-28.16 41.472-23.552q23.552-9.216 51.712-16.896t54.272-17.408 46.592-25.088 28.672-39.936zM549.888 148.48000000000002q3.072 6.144 0.512 12.8t-7.68 12.8-12.288 13.312h-47.104q-7.168-7.168-11.264-13.312-4.096-5.12-6.656-11.264t0.512-11.264q7.168-14.336 12.288-25.088t11.264-16.896q-2.048-9.216-6.144-26.112t-7.68-34.816-6.144-33.792-2.56-24.064q0-5.12 4.608-12.288t10.752-14.848 12.8-12.8 11.776-5.12 12.288 5.12 13.824 11.776 11.264 14.336 4.608 12.8q0 6.144-3.072 20.992t-6.656 33.28-7.68 35.84-7.168 27.648q6.144 5.12 11.776 14.848t13.824 26.112z"  horiz-adv-x="1024" />

    
    <glyph glyph-name="tingchechang" unicode="&#58939;" d="M512.108 827.849c244.076-0.157 442.14-198.281 442.093-442.225-0.05-244.298-198.644-442.303-442.605-442.12-244.132 0.18-441.96 198.946-441.799 442.391C69.96 628.772 266.963 827.751 512.108 827.85z m-0.127-857.043c229.1 0.055 414.773 185.837 414.723 414.963-0.05 229.01-185.182 414.167-414.499 414.553-228.901 0.384-414.74-185.219-415.088-414.565-0.347-228.616 186.002-415.004 414.864-414.95zM511.932-61.044h-0.339c-246.278 0.183-446.505 200.68-446.342 446.942 0.04 60.025 11.836 118.322 35.063 173.273 22.469 53.157 54.617 100.918 95.55 141.955 41.01 41.114 88.772 73.401 141.96 95.967 55.157 23.401 113.794 35.279 174.283 35.303 60.276-0.038 118.759-11.887 173.829-35.219 53.185-22.532 100.954-54.766 141.982-95.805 41.026-41.038 73.237-88.81 95.738-141.986 23.298-55.06 35.106-113.523 35.093-173.762-0.052-246.295-200.493-446.668-446.817-446.668z m0.173 884.345c-241.221-0.095-437.6-196.316-437.761-437.409-0.159-241.247 195.993-437.663 437.255-437.843h0.333c241.31 0 437.672 196.295 437.721 437.575 0.048 241.181-196.234 437.523-437.548 437.677z m-0.123-857.042c-56.674 0.004-111.608 11.144-163.374 33.109-49.98 21.209-94.873 51.545-133.434 90.165-38.502 38.565-68.718 83.414-89.81 133.305-21.846 51.677-32.88 106.494-32.794 162.925 0.085 56.617 11.224 111.526 33.107 163.202 21.135 49.913 51.355 94.73 89.82 133.209 38.464 38.475 83.241 68.681 133.09 89.778C400.192 793.793 455 804.867 511.495 804.867h0.717c56.67-0.095 111.602-11.228 163.265-33.09 49.916-21.122 94.719-51.33 133.167-89.783 38.45-38.454 68.63-83.243 89.71-133.122 21.816-51.629 32.884-106.505 32.895-163.102 0.013-56.62-11.063-111.55-32.92-163.264-21.112-49.949-51.336-94.808-89.84-133.334-38.504-38.525-83.344-68.777-133.277-89.914-51.699-21.882-106.618-32.986-163.23-33z m-0.486 829.516c-225.639 0-409.49-183.937-409.832-410.025-0.166-109.238 42.432-212.153 119.946-289.79 77.644-77.766 180.732-120.6 290.274-120.608 226.317 0.055 410.322 184.167 410.273 410.416-0.048 225.7-183.955 409.627-409.96 410.006l-0.701 0.001zM428.109 351.42v-222.434h-32.907V622.813h5.477c62.215 0 124.431 0.05 186.645-0.02 34.419-0.04 65.324-10.074 91.4-33.116 20.374-18.003 33.491-40.555 38.651-67.094 7.97-40.981 3.997-80.525-18.765-116.586-14.584-23.101-35.879-37.963-61.601-46.673-17.816-6.032-36.204-7.951-54.91-7.924-49.065 0.068-98.133 0.021-147.2 0.021l-6.79-0.001z m0.234 237.91v-203.671c1.818-0.096 3.382-0.25 4.946-0.25 46.984-0.013 93.968-0.178 140.95 0.118 10.365 0.065 20.874 0.94 31.05 2.865 32.869 6.216 57.028 23.98 69.174 55.816 10.208 26.759 11.02 54.029 2.11 81.436-9.019 27.748-27.057 46.747-54.637 56.506-15.769 5.581-32.163 7.14-48.744 7.16-46.341 0.054-92.684 0.018-139.026 0.018l-5.823 0.001zM432.656 124.438h-42V627.36h10.023c18.32 0 36.64 0.004 54.96 0.009 43.897 0.01 87.793 0.02 131.69-0.03 36.966-0.042 68.73-11.567 94.406-34.256 21.284-18.807 34.776-42.235 40.103-69.634 8.797-45.236 2.275-85.57-19.384-119.881-14.323-22.69-35.852-39.026-63.987-48.554-16.456-5.57-34.25-8.165-55.997-8.165h-0.378c-35 0.05-70.005 0.038-105.003 0.03-14.063-0.004-28.125-0.008-42.19-0.008h-2.244v-222.433z m-32.907 9.093h23.813V355.967h11.339c14.063 0 28.123 0.004 42.186 0.008 35.004 0.009 70.015 0.018 105.02-0.031h0.365c20.726 0 37.59 2.442 53.078 7.685 26.111 8.841 46.033 23.912 59.216 44.793 20.668 32.744 26.603 69.802 18.146 113.293-4.936 25.386-17.451 47.104-37.199 64.554-24.304 21.477-53.219 31.937-88.395 31.977-43.893 0.05-87.785 0.039-131.678 0.028-18.32-0.004-36.642-0.009-54.962-0.009h-0.93v-484.734z m108.853 247.273c-13.486 0-26.973 0.015-40.46 0.029-11.618 0.013-23.237 0.025-34.854 0.029-1.2 0-2.332 0.074-3.53 0.154-0.532 0.035-1.08 0.072-1.654 0.102l-4.307 0.229V593.876l89.49 0.012c19.969 0 39.941-0.007 59.91-0.03 20.049-0.024 36.018-2.383 50.254-7.421 28.597-10.12 47.925-30.1 57.444-59.387 9.17-28.205 8.435-56.623-2.185-84.462-12.26-32.139-36.679-51.876-72.578-58.665-9.955-1.883-20.676-2.874-31.865-2.944-19.057-0.119-39.922-0.175-65.665-0.175z m-75.712 9.155c0.134-0.002 0.267-0.004 0.398-0.004 11.62-0.003 23.242-0.016 34.864-0.028 13.483-0.014 26.967-0.03 40.45-0.03 25.723 0 46.57 0.057 65.607 0.176 10.642 0.068 20.815 1.004 30.233 2.787 32.585 6.161 54.713 23.983 65.77 52.97 9.86 25.849 10.545 52.23 2.034 78.409-8.721 26.829-25.676 44.37-51.83 53.624-13.237 4.685-28.246 6.878-47.231 6.9-19.965 0.024-39.935 0.03-59.9 0.03l-80.395-0.011v-194.823z"  horiz-adv-x="1024" />

    
    <glyph glyph-name="caidan3" unicode="&#58923;" d="M160.43750008 779.5078125h263.67187475a43.94531258 43.94531258 0 0 0 43.94531259-43.94531258v-263.67187475a43.94531258 43.94531258 0 0 0-43.94531259-43.94531259H160.43750008a43.94531258 43.94531258 0 0 0-43.94531258 43.94531259V735.5624999199999a43.94531258 43.94531258 0 0 0 43.94531258 43.94531258z m439.45312509 0h263.67187475a43.94531258 43.94531258 0 0 0 43.94531258-43.94531258v-263.67187475a43.94531258 43.94531258 0 0 0-43.94531258-43.94531259h-263.67187475a43.94531258 43.94531258 0 0 0-43.94531259 43.94531259V735.5624999199999a43.94531258 43.94531258 0 0 0 43.94531259 43.94531258zM160.43750008 340.05468742000005h263.67187475a43.94531258 43.94531258 0 0 0 43.94531259-43.9453126v-263.67187474a43.94531258 43.94531258 0 0 0-43.94531259-43.94531258H160.43750008a43.94531258 43.94531258 0 0 0-43.94531258 43.94531258v263.67187474a43.94531258 43.94531258 0 0 0 43.94531258 43.9453126z m439.45312509 0h263.67187475a43.94531258 43.94531258 0 0 0 43.94531258-43.9453126v-263.67187474a43.94531258 43.94531258 0 0 0-43.94531258-43.94531258h-263.67187475a43.94531258 43.94531258 0 0 0-43.94531259 43.94531258v263.67187474a43.94531258 43.94531258 0 0 0 43.94531259 43.9453126z"  horiz-adv-x="1024" />

    
    <glyph glyph-name="RoundedRectangle" unicode="&#58889;" d="M422.12179261 742.42026169h1272.237424a55.301449 55.301449 0 0 0 55.31645-55.289176V175.70654568999998a55.302813 55.302813 0 0 0-55.31645-55.29054H1127.38777061c-18.000176 0-64.883815-69.109766-82.972628-69.109766-18.818366 0-64.174718 69.109766-82.972629 69.109766H422.12179261A55.302813 55.302813 0 0 0 366.81079761 175.70654568999998V687.13108569A55.301449 55.301449 0 0 0 422.12179261 742.42026169z"  horiz-adv-x="2010" />

    
    <glyph glyph-name="jilu1" unicode="&#58888;" d="M896 510.877V704.16C896 774.59 838.448 832 767.454 832H256.546C185.725 832 128 774.525 128 703.625v-639.25C128-6.588 185.516-64 256.465-64h125.489v64h-125.49C220.826 0 192 28.795 192 64.375v639.25C192 739.086 220.979 768 256.546 768h510.908C803.106 768 832 739.238 832 704.16v-193.283h64zM793.274 403.565h90.51L517.728 37.511l-45.255 45.254 63.54-7.66-7.143-59.244c-1.391-11.542 0.929-13.853 12.463-12.463l59.244 7.143 7.66-63.54-45.255 45.255L929.038 358.31v-90.51L793.274 403.565z m45.255 45.255l135.764-135.764L608.238-53l-59.244-7.142c-52.54-6.335-90.046 30.714-83.663 83.662l7.143 59.244L838.529 448.82zM352 576h320c17.673 0 32 14.327 32 32 0 17.673-14.327 32-32 32H352c-17.673 0-32-14.327-32-32 0-17.673 14.327-32 32-32z m0-192h256c17.673 0 32 14.327 32 32 0 17.673-14.327 32-32 32H352c-17.673 0-32-14.327-32-32 0-17.673 14.327-32 32-32z m0-192h64c17.673 0 32 14.327 32 32 0 17.673-14.327 32-32 32h-64c-17.673 0-32-14.327-32-32 0-17.673 14.327-32 32-32z"  horiz-adv-x="1024" />

    
    <glyph glyph-name="chechangrenyuan1" unicode="&#58912;" d="M505.133528 891.024295C273.365209 891.024295 85.582119 702.047036 85.582119 468.88552c0-116.531001 46.970651-222.015938 122.899902-298.44276L505.133528-128l296.75102 298.44276c78.914674 79.312731 123.098931 186.588921 122.899903 298.44276C924.784451 702.047036 736.901846 891.024295 505.133528 891.024295zM499.759767 707.321283c69.759378 0.597085 126.780952-55.429349 127.477551-125.188727v-0.199028c0-70.356463-57.121088-127.378037-127.477551-127.378037-70.356463 0-127.378037 57.021574-127.378037 127.378037 0.49757 69.759378 57.519145 125.885326 127.278523 125.387755h0.099514z m-47.766764-292.571429h106.281049c90.159767 0.696599 163.899708-71.74966 164.695822-161.909426v-10.44898c0-35.227988-73.739942-37.417298-164.695822-37.417298H451.993003c-90.955879 0-164.695821 0-164.695821 37.417298v10.44898c0.895627 90.259281 74.536054 162.705539 164.695821 161.909426z"  horiz-adv-x="1024" />

    
    <glyph glyph-name="chechangdingwei1" unicode="&#58915;" d="M518.991125 894.701648C286.486297 894.701648 97.92568 705.1423 97.92568 471.139374c0-116.951526 47.140154-222.817127 123.343412-299.51975l297.722033-299.619624 297.821905 299.51975c79.199454 79.598947 123.543158 187.262265 123.343412 299.519751C940.156442 705.1423 751.595826 894.701648 518.991125 894.701648zM366.984102 658.002146h170.383693c99.473715 0 159.697259-59.025066 159.697259-144.216912v-1.198479c0-96.577392-75.104652-146.513996-168.585975-146.513996h-69.711499v-180.770506h-91.783478V658.002146z m164.491174-210.233103c45.841802 0 72.707695 27.465132 72.707695 63.119868v1.198478c0 41.147762-28.663611 63.119867-74.505413 63.119867h-70.909978v-127.538086h72.707696v0.099873z"  horiz-adv-x="1024" />

    
    <glyph glyph-name="print" unicode="&#59155;" d="M659.2 267.65599999999995H361.079c-16.465 0-29.812-13.347-29.812-29.812s13.347-29.813 29.812-29.813H659.2c16.461 0 29.812 13.347 29.812 29.812s-13.35 29.813-29.812 29.813z m238.5 387.56H778.45V774.465c0 32.931-26.693 59.625-59.624 59.625H301.453c-32.931 0-59.625-26.694-59.625-59.625v-119.249h-119.25c-32.93 0-59.624-26.694-59.624-59.625v-298.123c0-32.93 26.694-59.625 59.625-59.625h89.437v-238.498c0-32.928 26.694-59.625 59.625-59.625h476.997c32.93 0 59.624 26.697 59.624 59.625V237.84299999999996H897.7c32.931 0 59.625 26.694 59.625 59.625V595.591c0 32.931-26.694 59.625-59.625 59.625z m-596.247 89.437c0 16.465 13.347 29.812 29.812 29.812h357.748c16.461 0 29.812-13.347 29.812-29.812v-89.437H301.453v89.437z m447.185-715.496c0-16.465-13.35-29.812-29.812-29.812H301.453c-16.465 0-29.812 13.347-29.812 29.812V327.28c0 16.465 13.347 29.812 29.812 29.812h417.373c16.461 0 29.812-13.347 29.812-29.812v-298.123zM897.699 327.28c0-16.465-13.35-29.812-29.812-29.812h-59.625v59.625c0 32.931-26.693 59.625-59.624 59.625H271.64c-32.931 0-59.625-26.694-59.625-59.625v-59.625H152.39c-16.465 0-29.812 13.347-29.812 29.812v238.5c0 16.464 13.347 29.811 29.812 29.811h715.495c16.462 0 29.812-13.347 29.812-29.812V327.28z m-89.437 208.687c-16.465 0-29.811-13.347-29.811-29.812s13.346-29.813 29.811-29.813c16.462 0 29.812 13.347 29.812 29.812s-13.35 29.813-29.812 29.813z m-149.061-387.56H361.078c-16.465 0-29.812-13.348-29.812-29.813s13.347-29.812 29.812-29.812H659.2c16.461 0 29.812 13.347 29.812 29.812s-13.35 29.812-29.812 29.812z"  horiz-adv-x="1024" />

    
    <glyph glyph-name="xunjianyuan" unicode="&#58916;" d="M508.2 896C275.4 896 86.6 706.2 86.6 471.9c0-117.1 47.2-223.1 123.5-299.9l298.1-300 298.2 299.9c79.3 79.7 123.7 187.5 123.5 299.9C929.9 706.2 741.1 896 508.2 896zM415.2 620.4l-1.8-6.1c-17.2-3-23.8-7.1-23.8-13.9 0-6.1 5.2-9.9 18.3-12.9-1.9-3-2.9-6.4-3-9.9 0-6.8 4.1-13.2 11.3-18.9-2.3-7.8 0-18.9 1.8-25.6 1.3-7.3 3.6-12.4 7.1-16.1 0.3-0.3 0.4-0.6 0.5-1 7.2-47.7 46.5-91.2 82.5-91.2 42.5 0 80.3 48 87.7 91 0.1 0.4 0.3 0.8 0.1 0.6 3.6 3.6 6.1 8.8 7.2 15 2.5 9.1 4.5 20.6 2.2 27.9 17.1 13.8 10.5 25 8.8 27.3 15.6 3 21.6 7 21.6 13.5 0 7.2-7.3 11.4-26.6 14.4l-1.7 5.6c25 6.9 40.5 16.5 40.5 27.2 0 21.1-61.1 38.3-136.6 38.3-75.4 0-136.6-17.1-136.6-38.3 0-10.3 15.5-19.9 40.5-26.9z m95.1-84.6c31.6 0 59.9 5.5 79.2 14.3 0.7 0.2 3 1.4 3 1.4l1.1 0.6c0-3.2-0.5-8.6-2.9-17.3l-0.1-0.6c-0.6-3.8-1.9-6.7-4-8.7-1.8-2-3-4.5-3.5-7.2-6.4-37.2-40.6-80.5-75.1-80.5-29.2 0-63.8 39.8-69.9 80.4-0.5 2.9-1.8 5.6-3.8 7.7-1.8 1.9-3.1 5.1-3.9 9.9l-0.1 0.6c-1.5 5-2.3 10.1-2.5 15.3 19.4-9.7 49.1-15.9 82.5-15.9z m0 0M667 381.6c-1.4 1.8-9.3 11-25.2 17.1-13.9 4.3-48.3 15.7-67.2 29.3-5.5 3.9-11.8 11.5-11.8 11.5l-1.9-1.8c-0.9-0.9-1.8-1.6-2.8-2.4-3.6-11.4-14.9-44.4-33.7-79.1L523 383l-10.6 7.6 10.6 8.8-6.4 23.4h-15.4l-6.4-23.4 10.6-8.2-10.6-7.9-1.4-26.9c-13.5 25.3-24.8 51.7-33.7 79-0.9 0.8-1.8 1.5-2.8 2.4l-1.9 1.7s-6.4-7.6-11.8-11.5c-18.8-13.6-53.3-25-67.1-29.3-15.9-6-23.8-15.3-25.2-17.1-29.1-43.3-32.4-140.3-32.5-141.3 0.2-12.9 1.8-17.3 3.1-17.9 64.2-28.6 141.5-35.9 182.1-36.1 40.1 0.1 123 7.5 187.3 36.1 1.3 0.6 6.6 4.9 6.9 17.9 0.2 0.9-1.7 98-30.8 141.3z m0 0"  horiz-adv-x="1024" />

    
    <glyph glyph-name="youdaopai" unicode="&#58917;" d="M836.7 327.3H167.8c-13.8 0-25 11.3-25 25v516c0 13.8 11.3 25 25 25h668.9c13.8 0 25-11.3 25-25v-515.9c0-13.8-11.3-25.1-25-25.1zM787.4 364.7H217.1c-13.8 0-25 11.3-25 25V831c0 13.8 11.3 25 25 25h570.3c13.8 0 25-11.3 25-25v-441.3c0-13.8-11.3-25-25-25zM444.2 348.7h116V-76h-116zM656.2-127.9h-308c-6.6 0-12 5.4-12 12V-62c0 6.6 5.4 12 12 12h308c6.6 0 12-5.4 12-12v-53.9c0-6.6-5.4-12-12-12zM392.4 767.6h113.4c66.2 0 106.3-39.3 106.3-96v-0.8c0-64.3-50-97.5-112.2-97.5h-46.4V453h-61.1V767.6z m109.5-139.9c30.5 0 48.4 18.3 48.4 42v0.8c0 27.4-19.1 42-49.6 42h-47.2v-84.9l48.4 0.1z"  horiz-adv-x="1024" />

    
    <glyph glyph-name="lunei1" unicode="&#58921;" d="M518.991125 894.701648C286.486297 894.701648 97.92568 705.1423 97.92568 471.139374c0-116.951526 47.140154-222.817127 123.343412-299.51975l297.722033-299.619624 297.821905 299.51975c79.199454 79.598947 123.543158 187.262265 123.343412 299.519751C940.156442 705.1423 751.595826 894.701648 518.991125 894.701648zM366.984102 580.60041h170.383693c99.473715 0 159.697259-59.025066 159.697259-144.216912v-1.198479c0-96.577392-75.104652-146.513996-168.585975-146.513996h-69.711499v-180.770506h-91.783478V580.60041z m164.491174-210.233103c45.841802 0 72.707695 27.465132 72.707695 63.119867v1.198479c0 41.147762-28.663611 63.119867-74.505413 63.119867h-70.909978v-127.538086l72.707696 0.099873zM538.865893 706.340778l-142.818687-82.395396c-9.288208-5.393153-21.17312-2.097337-26.566274 7.090998-5.393153 9.288208-2.097337 21.17312 7.090998 26.566273l142.818687 82.395396c9.288208 5.393153 21.17312 2.097337 26.566274-7.090997 5.393153-9.288208 2.197211-21.272993-7.090998-26.566274zM683.482298 657.50278l-142.818687 82.395396c-9.288208 5.393153-21.17312 2.097337-26.566274-7.090998-5.393153-9.288208-2.097337-21.17312 7.090998-26.566273l142.818687-82.395396c9.288208-5.393153 21.17312-2.097337 26.566274 7.090997 5.29328 9.288208 2.097337 21.272993-7.090998 26.566274z"  horiz-adv-x="1024" />

    
    <glyph glyph-name="morentupian" unicode="&#58922;" d="M101.9 793.5h819.2v-819.2H101.9zM245.2 451.5c0-36 29.2-65.2 65.2-65.2V516.6c-36 0-65.2-29.1-65.2-65.1z m0 0M375.6 451.5c0-36-29.2-65.2-65.2-65.2V516.6c36 0 65.2-29.1 65.2-65.1z m0 0M450 286.6l-80.2 27.6L245.2 178S450 286.5 450 286.6z m243.2 128.8l-71.3-37.8L765.3 178l-72.1 237.4z m0 0M245.2 178h145L450 286.5 245.2 178z m0 0M621.9 377.6l-68.9 96-103-187 171.9 91z m0 0M765.3 178L621.9 377.6l-171.9-91L765.3 178z m0 0M450 286.5L390.2 178h375.1L450 286.5z m0 0M450 503c0-4.9 2.6-9.3 6.8-11.8 4.2-2.4 9.4-2.4 13.6 0 4.2 2.4 6.8 6.9 6.8 11.8s-2.6 9.3-6.8 11.8c-4.2 2.4-9.4 2.4-13.6 0-4.2-2.4-6.8-6.9-6.8-11.8z m0 0M622.1 530.2c0-4.9 2.6-9.3 6.8-11.8 4.2-2.4 9.4-2.4 13.6 0 4.2 2.4 6.8 6.9 6.8 11.8s-2.6 9.3-6.8 11.8c-4.2 2.4-9.4 2.4-13.6 0-4.2-2.4-6.8-6.9-6.8-11.8z m0 0M750.5 460c0-4.9 2.6-9.3 6.8-11.8 4.2-2.4 9.4-2.4 13.6 0 4.2 2.4 6.8 6.9 6.8 11.8 0 7.5-6.1 13.6-13.6 13.6s-13.6-6.1-13.6-13.6z m0 0"  horiz-adv-x="1024" />

    


  </font>
</defs>
</svg>
